<svg width="274.7" height="96.701" viewBox="0 0 274.7 96.701" xmlns="http://www.w3.org/2000/svg"><g id="svgGroup" stroke-linecap="round" fill-rule="evenodd" font-size="9pt" stroke="#ffffff" stroke-width="0.25mm" fill="#ffffff" style="stroke:#ffffff;stroke-width:0.25mm;fill:#ffffff"><path d="M 142.5 73.501 L 133.5 73.501 L 133.5 21.501 L 142.2 21.501 L 142.2 30.201 Q 145 26.001 149.3 23.151 A 17.205 17.205 0 0 1 158.502 20.309 A 20.858 20.858 0 0 1 159.1 20.301 A 20.994 20.994 0 0 1 163.517 20.74 Q 166.503 21.383 168.785 22.964 A 13.128 13.128 0 0 1 169.25 23.301 A 15.751 15.751 0 0 1 174.698 30.99 A 19.154 19.154 0 0 1 174.8 31.301 Q 177.9 26.701 182.15 23.501 A 15.669 15.669 0 0 1 188.941 20.617 A 21.446 21.446 0 0 1 192.7 20.301 A 21.437 21.437 0 0 1 197.588 20.823 Q 201.174 21.663 203.663 23.852 A 12.994 12.994 0 0 1 205.35 25.651 A 18.992 18.992 0 0 1 208.761 32.923 Q 209.5 35.973 209.5 39.601 L 209.5 73.501 L 200.5 73.501 L 200.5 40.301 A 19.042 19.042 0 0 0 200.163 36.611 Q 199.727 34.406 198.728 32.662 A 10.982 10.982 0 0 0 198 31.551 A 7.974 7.974 0 0 0 192.187 28.255 A 10.678 10.678 0 0 0 191.1 28.201 A 11.926 11.926 0 0 0 184.341 30.328 A 15.996 15.996 0 0 0 182.75 31.551 Q 178.9 34.901 176 39.401 L 176 73.501 L 167 73.501 L 167 40.301 A 19.042 19.042 0 0 0 166.663 36.611 Q 166.227 34.406 165.228 32.662 A 10.982 10.982 0 0 0 164.5 31.551 A 7.974 7.974 0 0 0 158.687 28.255 A 10.678 10.678 0 0 0 157.6 28.201 A 12.02 12.02 0 0 0 151.281 30.029 A 16.244 16.244 0 0 0 149.3 31.451 Q 145.4 34.701 142.5 39.101 L 142.5 73.501 Z M 77.4 92.301 L 80.7 84.501 A 20.562 20.562 0 0 0 84.517 86.874 A 24.737 24.737 0 0 0 86.3 87.651 Q 89.059 88.728 92.859 88.877 A 31.788 31.788 0 0 0 94.1 88.901 A 21.701 21.701 0 0 0 98.621 88.458 Q 101.522 87.84 103.722 86.36 A 12.576 12.576 0 0 0 105.25 85.151 A 11.352 11.352 0 0 0 108.157 80.657 Q 109.3 77.557 109.3 73.201 L 109.3 66.801 Q 107.3 69.201 103.55 71.351 Q 99.8 73.501 94.6 73.501 Q 88.7 73.501 83.4 70.451 A 22.236 22.236 0 0 1 76.108 63.613 A 27.437 27.437 0 0 1 74.8 61.501 A 25.181 25.181 0 0 1 72.087 53.877 A 35.033 35.033 0 0 1 71.5 47.301 A 32.06 32.06 0 0 1 72.417 39.493 A 26.682 26.682 0 0 1 74.75 33.401 A 25.706 25.706 0 0 1 80.814 25.778 A 24.448 24.448 0 0 1 83.5 23.801 Q 89 20.301 95.6 20.301 A 22.366 22.366 0 0 1 100.42 20.802 A 18.715 18.715 0 0 1 103.6 21.801 A 25.705 25.705 0 0 1 107.428 23.769 A 20.998 20.998 0 0 1 109.8 25.501 L 109.8 21.501 L 118 21.501 L 118 72.301 Q 118 80.901 115 86.301 Q 112 91.701 106.65 94.201 A 25.811 25.811 0 0 1 100.046 96.222 A 35.243 35.243 0 0 1 94.1 96.701 Q 89.5 96.701 85.15 95.601 A 27.232 27.232 0 0 1 79.85 93.683 A 23.518 23.518 0 0 1 77.4 92.301 Z M 9.5 73.501 L 0 73.501 L 0 3.501 L 41.5 3.501 L 41.5 11.701 L 9.5 11.701 L 9.5 33.101 L 36.2 33.101 L 36.2 40.901 L 9.5 40.901 L 9.5 73.501 Z M 260.6 25.701 L 260.6 21.501 L 268.8 21.501 L 268.8 60.901 A 12.15 12.15 0 0 0 268.902 62.536 Q 269.234 64.97 270.65 65.851 Q 272.5 67.001 274.7 67.001 L 272.8 74.001 A 17.722 17.722 0 0 1 268.535 73.528 Q 262.898 72.128 261.303 66.581 A 13.59 13.59 0 0 1 261.2 66.201 A 21.307 21.307 0 0 1 258.09 69.627 A 28.498 28.498 0 0 1 254.95 72.051 Q 251 74.701 244.9 74.701 Q 238.4 74.701 233.1 71.401 A 22.947 22.947 0 0 1 225.687 63.874 A 27.923 27.923 0 0 1 224.65 62.051 A 27.228 27.228 0 0 1 222.02 54.108 A 36.644 36.644 0 0 1 221.5 47.801 A 33.142 33.142 0 0 1 222.497 39.532 A 27.968 27.968 0 0 1 224.65 33.801 Q 227.8 27.601 233.35 23.951 A 22.297 22.297 0 0 1 244.545 20.344 A 27.388 27.388 0 0 1 246.1 20.301 A 22.584 22.584 0 0 1 250.894 20.791 A 18.703 18.703 0 0 1 254.25 21.851 A 26.002 26.002 0 0 1 258.537 24.144 A 22.103 22.103 0 0 1 260.6 25.701 Z M 59 73.501 L 50 73.501 L 50 21.501 L 59 21.501 L 59 73.501 Z M 259.8 60.201 L 259.8 32.301 Q 257.1 30.401 253.85 29.251 Q 250.6 28.101 247 28.101 A 15.924 15.924 0 0 0 242.029 28.854 A 14.024 14.024 0 0 0 238.55 30.551 A 16.301 16.301 0 0 0 233.531 35.974 A 19.962 19.962 0 0 0 232.8 37.351 A 20.663 20.663 0 0 0 231.047 43.027 A 27.678 27.678 0 0 0 230.7 47.501 Q 230.7 53.101 232.8 57.451 A 17.602 17.602 0 0 0 235.906 61.997 A 15.697 15.697 0 0 0 238.6 64.251 Q 242.3 66.701 246.9 66.701 Q 250.7 66.701 254.1 64.851 Q 257.5 63.001 259.8 60.201 Z M 109 59.501 L 109 32.301 Q 106.834 30.726 103.797 29.441 A 36.018 36.018 0 0 0 103.7 29.401 A 16.249 16.249 0 0 0 99.896 28.349 A 22.135 22.135 0 0 0 96.5 28.101 Q 92.4 28.101 88.8 30.301 Q 85.2 32.501 82.95 36.651 Q 80.7 40.801 80.7 46.801 A 24.32 24.32 0 0 0 81.178 51.737 A 18.311 18.311 0 0 0 82.95 56.701 A 18.576 18.576 0 0 0 85.861 60.775 A 15.802 15.802 0 0 0 88.8 63.201 Q 92.4 65.501 96.6 65.501 A 15.276 15.276 0 0 0 101.178 64.832 A 13.606 13.606 0 0 0 103.8 63.701 A 20.855 20.855 0 0 0 106.781 61.685 A 16.309 16.309 0 0 0 109 59.501 Z M 50.137 10.789 A 5.973 5.973 0 0 0 54.5 12.601 A 8.175 8.175 0 0 0 55.996 12.47 A 5.647 5.647 0 0 0 59.1 10.851 Q 60.8 9.101 60.8 6.301 A 7.26 7.26 0 0 0 60.8 6.22 A 6.06 6.06 0 0 0 58.95 1.851 A 7.395 7.395 0 0 0 58.892 1.793 A 6.059 6.059 0 0 0 54.5 0.001 A 8.264 8.264 0 0 0 52.844 0.158 A 5.661 5.661 0 0 0 49.9 1.701 A 5.588 5.588 0 0 0 48.429 4.333 A 7.987 7.987 0 0 0 48.2 6.301 A 5.992 5.992 0 0 0 48.692 8.719 A 6.643 6.643 0 0 0 50.05 10.701 A 7.466 7.466 0 0 0 50.137 10.789 Z" vector-effect="non-scaling-stroke"/></g></svg>