<svg width="678.3" height="74.702" viewBox="0 0 678.3 74.702" xmlns="http://www.w3.org/2000/svg"><g id="svgGroup" stroke-linecap="round" fill-rule="evenodd" font-size="9pt" stroke="#bb11ff" stroke-width="0.25mm" fill="#bb11ff" style="stroke:#bb11ff;stroke-width:0.25mm;fill:#bb11ff"><path d="M 376.9 73.501 L 367.9 73.501 L 367.9 3.501 L 381.2 3.501 L 400.6 47.801 L 419.7 3.501 L 433.3 3.501 L 433.3 73.501 L 423.8 73.501 L 423.8 15.601 L 405.1 57.701 L 395.7 57.701 L 376.9 15.601 L 376.9 73.501 Z M 160.1 73.501 L 151.1 73.501 L 151.1 21.501 L 159.8 21.501 L 159.8 30.201 Q 162.6 26.001 166.9 23.151 A 17.205 17.205 0 0 1 176.102 20.309 A 20.858 20.858 0 0 1 176.7 20.301 A 20.994 20.994 0 0 1 181.117 20.74 Q 184.103 21.383 186.385 22.964 A 13.128 13.128 0 0 1 186.85 23.301 A 15.751 15.751 0 0 1 192.298 30.99 A 19.154 19.154 0 0 1 192.4 31.301 Q 195.5 26.701 199.75 23.501 A 15.669 15.669 0 0 1 206.541 20.617 A 21.446 21.446 0 0 1 210.3 20.301 A 21.437 21.437 0 0 1 215.188 20.823 Q 218.774 21.663 221.263 23.852 A 12.994 12.994 0 0 1 222.95 25.651 A 18.992 18.992 0 0 1 226.361 32.923 Q 227.1 35.973 227.1 39.601 L 227.1 73.501 L 218.1 73.501 L 218.1 40.301 A 19.042 19.042 0 0 0 217.763 36.611 Q 217.327 34.406 216.328 32.662 A 10.982 10.982 0 0 0 215.6 31.551 A 7.974 7.974 0 0 0 209.787 28.255 A 10.678 10.678 0 0 0 208.7 28.201 A 11.926 11.926 0 0 0 201.941 30.328 A 15.996 15.996 0 0 0 200.35 31.551 Q 196.5 34.901 193.6 39.401 L 193.6 73.501 L 184.6 73.501 L 184.6 40.301 A 19.042 19.042 0 0 0 184.263 36.611 Q 183.827 34.406 182.828 32.662 A 10.982 10.982 0 0 0 182.1 31.551 A 7.974 7.974 0 0 0 176.287 28.255 A 10.678 10.678 0 0 0 175.2 28.201 A 12.02 12.02 0 0 0 168.881 30.029 A 16.244 16.244 0 0 0 166.9 31.451 Q 163 34.701 160.1 39.101 L 160.1 73.501 Z M 643.6 73.501 L 634.6 73.501 L 634.6 21.501 L 643.3 21.501 L 643.3 30.201 Q 646.1 26.001 650.45 23.151 A 17.316 17.316 0 0 1 657.556 20.526 A 22.629 22.629 0 0 1 660.8 20.301 A 23.225 23.225 0 0 1 665.865 20.818 Q 670.959 21.957 673.95 25.601 Q 678.075 30.626 678.288 38.709 A 33.764 33.764 0 0 1 678.3 39.601 L 678.3 73.501 L 669.3 73.501 L 669.3 40.601 A 19.265 19.265 0 0 0 668.958 36.86 Q 668.519 34.645 667.519 32.897 A 10.966 10.966 0 0 0 666.65 31.601 A 8.579 8.579 0 0 0 660.373 28.247 A 12.061 12.061 0 0 0 659.3 28.201 A 13.122 13.122 0 0 0 652.451 30.165 A 17.353 17.353 0 0 0 650.6 31.451 Q 646.5 34.701 643.6 39.101 L 643.6 73.501 Z M 9.5 73.501 L 0 73.501 L 0 3.501 L 41.5 3.501 L 41.5 11.701 L 9.5 11.701 L 9.5 33.101 L 36.2 33.101 L 36.2 40.901 L 9.5 40.901 L 9.5 73.501 Z M 284.7 51.201 L 248.3 51.201 A 24.088 24.088 0 0 0 249.439 56.226 Q 250.775 60.038 253.4 62.601 Q 257.6 66.701 264.5 66.701 Q 269 66.701 272.6 65.751 Q 276.2 64.801 279.5 63.301 L 281.6 71.001 A 40.77 40.77 0 0 1 277.265 72.627 A 51.863 51.863 0 0 1 273.5 73.651 A 38.914 38.914 0 0 1 268.408 74.47 A 52.025 52.025 0 0 1 263.4 74.701 A 28.318 28.318 0 0 1 255.654 73.695 A 21.108 21.108 0 0 1 245.65 67.551 A 23.521 23.521 0 0 1 240.445 58.011 Q 239.1 53.346 239.1 47.501 A 35.359 35.359 0 0 1 239.933 39.679 A 28.84 28.84 0 0 1 242.05 33.551 A 24.642 24.642 0 0 1 247.066 26.469 A 22.887 22.887 0 0 1 250.3 23.851 A 21.048 21.048 0 0 1 260.559 20.379 A 26.205 26.205 0 0 1 262.6 20.301 Q 270.1 20.301 275.05 23.551 Q 280 26.801 282.5 32.301 A 28.185 28.185 0 0 1 284.926 42.164 A 33.434 33.434 0 0 1 285 44.401 A 75.204 75.204 0 0 1 284.709 51.097 A 69.426 69.426 0 0 1 284.7 51.201 Z M 512.1 55.601 L 512.1 31.201 L 503.1 31.201 L 503.1 23.401 L 512.3 23.401 L 514.2 7.001 L 521.1 7.001 L 521.1 23.401 L 535.5 23.401 L 535.5 31.201 L 521.1 31.201 L 521.1 56.301 A 21.559 21.559 0 0 0 521.268 59.097 Q 521.741 62.703 523.55 64.401 Q 526 66.701 529.4 66.701 Q 531.9 66.701 534.15 65.901 Q 536.4 65.101 538.3 64.001 L 540.8 71.201 A 18.546 18.546 0 0 1 539.182 72.057 Q 538.38 72.435 537.434 72.809 A 43.365 43.365 0 0 1 535.4 73.551 Q 532 74.701 528.3 74.701 Q 520.8 74.701 516.45 69.751 A 16.116 16.116 0 0 1 513.222 63.848 Q 512.459 61.418 512.215 58.481 A 34.777 34.777 0 0 1 512.1 55.601 Z M 125 25.701 L 125 21.501 L 133.2 21.501 L 133.2 60.901 A 12.15 12.15 0 0 0 133.302 62.536 Q 133.634 64.97 135.05 65.851 Q 136.9 67.001 139.1 67.001 L 137.2 74.001 A 17.722 17.722 0 0 1 132.935 73.528 Q 127.298 72.128 125.703 66.581 A 13.59 13.59 0 0 1 125.6 66.201 A 21.307 21.307 0 0 1 122.49 69.627 A 28.498 28.498 0 0 1 119.35 72.051 Q 115.4 74.701 109.3 74.701 Q 102.8 74.701 97.5 71.401 A 22.947 22.947 0 0 1 90.087 63.874 A 27.923 27.923 0 0 1 89.05 62.051 A 27.228 27.228 0 0 1 86.42 54.108 A 36.644 36.644 0 0 1 85.9 47.801 A 33.142 33.142 0 0 1 86.897 39.532 A 27.968 27.968 0 0 1 89.05 33.801 Q 92.2 27.601 97.75 23.951 A 22.297 22.297 0 0 1 108.945 20.344 A 27.388 27.388 0 0 1 110.5 20.301 A 22.584 22.584 0 0 1 115.294 20.791 A 18.703 18.703 0 0 1 118.65 21.851 A 26.002 26.002 0 0 1 122.937 24.144 A 22.103 22.103 0 0 1 125 25.701 Z M 61.5 73.501 L 52.5 73.501 L 52.5 21.501 L 61.2 21.501 L 61.2 32.801 Q 62.5 29.501 64.7 26.651 Q 66.9 23.801 70.2 22.051 A 14.817 14.817 0 0 1 74.88 20.527 A 19.459 19.459 0 0 1 77.9 20.301 Q 79.4 20.301 80.9 20.451 A 18.972 18.972 0 0 1 81.955 20.584 Q 82.455 20.663 82.882 20.763 A 8.817 8.817 0 0 1 83.4 20.901 L 80.7 30.201 A 9.763 9.763 0 0 0 78.555 29.588 Q 77.459 29.401 76.2 29.401 A 12.958 12.958 0 0 0 69.57 31.246 A 15.609 15.609 0 0 0 69.15 31.501 Q 65.822 33.587 63.678 37.943 A 22.927 22.927 0 0 0 63.65 38.001 Q 61.887 41.608 61.57 46.828 A 39.09 39.09 0 0 0 61.5 49.201 L 61.5 73.501 Z M 306 73.501 L 297 73.501 L 297 21.501 L 305.7 21.501 L 305.7 32.801 Q 307 29.501 309.2 26.651 Q 311.4 23.801 314.7 22.051 A 14.817 14.817 0 0 1 319.38 20.527 A 19.459 19.459 0 0 1 322.4 20.301 Q 323.9 20.301 325.4 20.451 A 18.972 18.972 0 0 1 326.455 20.584 Q 326.955 20.663 327.382 20.763 A 8.817 8.817 0 0 1 327.9 20.901 L 325.2 30.201 A 9.763 9.763 0 0 0 323.055 29.588 Q 321.959 29.401 320.7 29.401 A 12.958 12.958 0 0 0 314.07 31.246 A 15.609 15.609 0 0 0 313.65 31.501 Q 310.322 33.587 308.178 37.943 A 22.927 22.927 0 0 0 308.15 38.001 Q 306.387 41.608 306.07 46.828 A 39.09 39.09 0 0 0 306 49.201 L 306 73.501 Z M 458.9 71.251 A 24.559 24.559 0 0 0 463.498 73.34 Q 467.553 74.701 472.2 74.701 Q 479.6 74.701 485.45 71.301 Q 491.3 67.901 494.7 61.751 A 26.255 26.255 0 0 0 497.353 54.609 A 34.184 34.184 0 0 0 498.1 47.301 A 34.542 34.542 0 0 0 497.615 41.392 A 25.795 25.795 0 0 0 494.65 32.951 Q 491.2 26.901 485.35 23.601 A 24.848 24.848 0 0 0 480.709 21.574 A 27.738 27.738 0 0 0 472.2 20.301 A 31.325 31.325 0 0 0 470.62 20.34 A 26.169 26.169 0 0 0 459 23.601 Q 453.1 26.901 449.7 33.001 A 26.023 26.023 0 0 0 446.951 40.591 A 35.006 35.006 0 0 0 446.3 47.501 A 34.82 34.82 0 0 0 446.565 51.854 A 27.451 27.451 0 0 0 449.65 61.651 Q 453 67.801 458.9 71.251 Z M 583.4 71.251 A 24.559 24.559 0 0 0 587.998 73.34 Q 592.053 74.701 596.7 74.701 Q 604.1 74.701 609.95 71.301 Q 615.8 67.901 619.2 61.751 A 26.255 26.255 0 0 0 621.853 54.609 A 34.184 34.184 0 0 0 622.6 47.301 A 34.542 34.542 0 0 0 622.115 41.392 A 25.795 25.795 0 0 0 619.15 32.951 Q 615.7 26.901 609.85 23.601 A 24.848 24.848 0 0 0 605.209 21.574 A 27.738 27.738 0 0 0 596.7 20.301 A 31.325 31.325 0 0 0 595.12 20.34 A 26.169 26.169 0 0 0 583.5 23.601 Q 577.6 26.901 574.2 33.001 A 26.023 26.023 0 0 0 571.451 40.591 A 35.006 35.006 0 0 0 570.8 47.501 A 34.82 34.82 0 0 0 571.065 51.854 A 27.451 27.451 0 0 0 574.15 61.651 Q 577.5 67.801 583.4 71.251 Z M 558.8 73.501 L 549.8 73.501 L 549.8 21.501 L 558.8 21.501 L 558.8 73.501 Z M 472.2 66.701 Q 480.1 66.701 484.5 61.351 A 18.802 18.802 0 0 0 488.319 53.261 A 27.105 27.105 0 0 0 488.9 47.501 Q 488.9 42.301 486.7 37.951 A 19.198 19.198 0 0 0 482.528 32.382 A 18.17 18.17 0 0 0 480.75 30.951 Q 477 28.301 472.2 28.301 A 19.249 19.249 0 0 0 466.974 28.972 A 14.037 14.037 0 0 0 459.9 33.501 A 17.878 17.878 0 0 0 456.226 40.874 Q 455.5 43.807 455.5 47.301 Q 455.5 52.501 457.7 56.951 A 19.437 19.437 0 0 0 461.23 61.991 A 17.627 17.627 0 0 0 463.65 64.051 Q 467.4 66.701 472.2 66.701 Z M 596.7 66.701 Q 604.6 66.701 609 61.351 A 18.802 18.802 0 0 0 612.819 53.261 A 27.105 27.105 0 0 0 613.4 47.501 Q 613.4 42.301 611.2 37.951 A 19.198 19.198 0 0 0 607.028 32.382 A 18.17 18.17 0 0 0 605.25 30.951 Q 601.5 28.301 596.7 28.301 A 19.249 19.249 0 0 0 591.474 28.972 A 14.037 14.037 0 0 0 584.4 33.501 A 17.878 17.878 0 0 0 580.726 40.874 Q 580 43.807 580 47.301 Q 580 52.501 582.2 56.951 A 19.437 19.437 0 0 0 585.73 61.991 A 17.627 17.627 0 0 0 588.15 64.051 Q 591.9 66.701 596.7 66.701 Z M 124.2 60.201 L 124.2 32.301 Q 121.5 30.401 118.25 29.251 Q 115 28.101 111.4 28.101 A 15.924 15.924 0 0 0 106.429 28.854 A 14.024 14.024 0 0 0 102.95 30.551 A 16.301 16.301 0 0 0 97.931 35.974 A 19.962 19.962 0 0 0 97.2 37.351 A 20.663 20.663 0 0 0 95.447 43.027 A 27.678 27.678 0 0 0 95.1 47.501 Q 95.1 53.101 97.2 57.451 A 17.602 17.602 0 0 0 100.306 61.997 A 15.697 15.697 0 0 0 103 64.251 Q 106.7 66.701 111.3 66.701 Q 115.1 66.701 118.5 64.851 Q 121.9 63.001 124.2 60.201 Z M 248.2 43.901 L 276.7 43.901 A 24.355 24.355 0 0 0 276.296 39.315 Q 275.8 36.731 274.696 34.708 A 12.422 12.422 0 0 0 272.9 32.201 A 12.488 12.488 0 0 0 265.939 28.425 A 18.395 18.395 0 0 0 262.4 28.101 A 13.58 13.58 0 0 0 257.288 29.036 A 12.524 12.524 0 0 0 252.8 32.151 Q 249 36.201 248.2 43.901 Z M 549.937 10.789 A 5.973 5.973 0 0 0 554.3 12.601 A 8.175 8.175 0 0 0 555.796 12.47 A 5.647 5.647 0 0 0 558.9 10.851 Q 560.6 9.101 560.6 6.301 A 7.26 7.26 0 0 0 560.6 6.22 A 6.06 6.06 0 0 0 558.75 1.851 A 7.395 7.395 0 0 0 558.692 1.793 A 6.059 6.059 0 0 0 554.3 0.001 A 8.264 8.264 0 0 0 552.644 0.158 A 5.661 5.661 0 0 0 549.7 1.701 A 5.588 5.588 0 0 0 548.229 4.333 A 7.987 7.987 0 0 0 548 6.301 A 5.992 5.992 0 0 0 548.492 8.719 A 6.643 6.643 0 0 0 549.85 10.701 A 7.466 7.466 0 0 0 549.937 10.789 Z" vector-effect="non-scaling-stroke"/></g></svg>