<svg width="163.228" height="39.105" viewBox="0 0 163.228 39.105" xmlns="http://www.w3.org/2000/svg"><g id="svgGroup" stroke-linecap="round" fill-rule="evenodd" font-size="9pt" stroke="#ffffff" stroke-width="0.1mm" fill="#ffffff" style="stroke:#ffffff;stroke-width:0.1mm;fill:#ffffff"><path d="M 27.664 4.42 L 25.844 8.528 Q 23.66 7.332 21.398 6.552 A 14.227 14.227 0 0 0 18.227 5.865 A 17.797 17.797 0 0 0 16.38 5.772 A 10.467 10.467 0 0 0 12.487 6.485 A 9.838 9.838 0 0 0 10.556 7.514 Q 8.008 9.256 6.526 12.636 Q 5.241 15.567 5.07 19.632 A 30.322 30.322 0 0 0 5.044 20.904 Q 5.044 24.705 6.068 27.541 A 13.539 13.539 0 0 0 6.396 28.366 A 12.573 12.573 0 0 0 7.921 30.99 A 9.933 9.933 0 0 0 10.14 33.124 A 9.324 9.324 0 0 0 15.241 34.781 A 11.436 11.436 0 0 0 15.652 34.788 A 11.836 11.836 0 0 0 18.563 34.443 A 9.794 9.794 0 0 0 20.826 33.566 A 20.988 20.988 0 0 0 22.388 32.639 Q 23.576 31.857 24.388 31.044 L 24.388 23.088 L 16.848 23.088 L 16.848 19.188 L 29.068 19.188 L 29.068 38.48 L 24.7 38.48 L 24.7 34.84 A 18.659 18.659 0 0 1 22.424 36.552 A 24.624 24.624 0 0 1 20.28 37.778 A 12.269 12.269 0 0 1 15.389 39.078 A 14.628 14.628 0 0 1 14.508 39.104 A 13.817 13.817 0 0 1 9.666 38.272 A 12.746 12.746 0 0 1 7.02 36.92 A 13.982 13.982 0 0 1 2.896 32.606 A 17.654 17.654 0 0 1 1.872 30.706 A 19.515 19.515 0 0 1 0.36 25.729 A 26.955 26.955 0 0 1 0 21.216 A 29.277 29.277 0 0 1 0.434 16.059 A 22.137 22.137 0 0 1 1.976 10.946 A 17.02 17.02 0 0 1 4.984 6.293 A 15.317 15.317 0 0 1 7.67 3.978 A 14.473 14.473 0 0 1 13.582 1.69 A 19.273 19.273 0 0 1 16.64 1.456 A 23.535 23.535 0 0 1 19.744 1.651 A 17.477 17.477 0 0 1 22.672 2.288 Q 25.324 3.12 27.664 4.42 Z M 75.712 38.48 L 70.772 38.48 L 70.772 2.08 L 75.712 2.08 L 75.712 17.628 L 93.652 17.628 L 93.652 2.08 L 98.592 2.08 L 98.592 38.48 L 93.652 38.48 L 93.652 21.892 L 75.712 21.892 L 75.712 38.48 Z M 107.172 29.016 L 107.172 11.44 L 111.852 11.44 L 111.852 28.392 Q 111.852 31.564 113.204 33.254 Q 114.556 34.944 117.156 34.944 Q 119.288 34.944 121.29 34.086 Q 123.292 33.228 124.852 31.772 L 124.852 11.44 L 129.532 11.44 L 129.532 31.46 Q 129.532 33.211 130.122 34.021 A 1.7 1.7 0 0 0 130.494 34.398 Q 131.456 35.1 132.6 35.1 L 131.612 38.74 Q 126.776 38.74 125.632 34.892 Q 123.812 36.764 121.42 37.934 Q 119.028 39.104 116.272 39.104 Q 113.932 39.104 111.852 38.116 A 7.509 7.509 0 0 1 108.987 35.704 A 9.499 9.499 0 0 1 108.472 34.918 A 8.445 8.445 0 0 1 107.607 32.79 Q 107.335 31.765 107.233 30.547 A 18.394 18.394 0 0 1 107.172 29.016 Z M 143.208 36.244 L 143.208 38.48 L 138.84 38.48 L 138.84 0 L 143.52 0 L 143.52 14.248 Q 144.321 13.327 145.691 12.453 A 17.323 17.323 0 0 1 146.562 11.934 A 8.623 8.623 0 0 1 149.282 10.987 A 11.661 11.661 0 0 1 151.32 10.816 Q 154.44 10.816 157.17 12.454 A 11.611 11.611 0 0 1 160.903 16.077 A 14.282 14.282 0 0 1 161.564 17.186 Q 163.155 20.144 163.225 24.314 A 23.022 23.022 0 0 1 163.228 24.7 A 17.324 17.324 0 0 1 162.871 28.282 A 14.43 14.43 0 0 1 162.188 30.576 A 15.271 15.271 0 0 1 160.544 33.698 A 13.251 13.251 0 0 1 159.406 35.126 Q 157.664 37.024 155.48 38.064 A 10.403 10.403 0 0 1 151.65 39.083 A 9.989 9.989 0 0 1 151.008 39.104 Q 148.668 39.104 146.614 38.246 Q 144.56 37.388 143.208 36.244 Z M 50.648 29.172 L 50.648 16.484 L 45.968 16.484 L 45.968 12.428 L 50.752 12.428 L 51.74 3.9 L 55.328 3.9 L 55.328 12.428 L 62.816 12.428 L 62.816 16.484 L 55.328 16.484 L 55.328 29.536 Q 55.328 32.208 56.329 33.452 A 2.889 2.889 0 0 0 56.602 33.748 Q 57.876 34.944 59.644 34.944 Q 60.944 34.944 62.114 34.528 Q 63.284 34.112 64.272 33.54 L 65.572 37.284 A 9.644 9.644 0 0 1 64.731 37.729 Q 64.314 37.926 63.822 38.12 A 22.55 22.55 0 0 1 62.764 38.506 Q 60.996 39.104 59.072 39.104 A 9.53 9.53 0 0 1 56.378 38.742 A 7.246 7.246 0 0 1 52.91 36.53 A 8.38 8.38 0 0 1 51.232 33.461 Q 50.835 32.197 50.708 30.67 A 18.084 18.084 0 0 1 50.648 29.172 Z M 41.288 38.48 L 36.608 38.48 L 36.608 11.44 L 41.288 11.44 L 41.288 38.48 Z M 143.52 18.408 L 143.52 32.864 Q 144.716 33.8 146.328 34.372 A 10.12 10.12 0 0 0 149.534 34.942 A 11.46 11.46 0 0 0 149.76 34.944 Q 152.308 34.944 154.258 33.696 A 8.295 8.295 0 0 0 156.937 30.883 A 10.217 10.217 0 0 0 157.326 30.16 A 10.851 10.851 0 0 0 158.287 27.016 A 14.288 14.288 0 0 0 158.444 24.856 A 14.584 14.584 0 0 0 158.238 22.338 Q 157.981 20.873 157.405 19.661 A 9.016 9.016 0 0 0 157.326 19.5 Q 156.208 17.264 154.362 16.068 Q 152.516 14.872 150.28 14.872 Q 148.044 14.872 146.25 15.99 A 12.248 12.248 0 0 0 144.934 16.928 Q 144.291 17.459 143.817 18.026 A 6.729 6.729 0 0 0 143.52 18.408 Z M 38.927 6.812 A 3.682 3.682 0 0 0 38.948 6.812 A 4.251 4.251 0 0 0 39.726 6.744 A 2.937 2.937 0 0 0 41.34 5.902 A 3.004 3.004 0 0 0 42.081 4.619 A 3.906 3.906 0 0 0 42.224 3.536 A 3.776 3.776 0 0 0 42.224 3.494 A 3.151 3.151 0 0 0 41.262 1.222 A 3.846 3.846 0 0 0 41.232 1.192 A 3.15 3.15 0 0 0 38.948 0.26 A 4.297 4.297 0 0 0 38.087 0.342 A 2.944 2.944 0 0 0 36.556 1.144 A 2.906 2.906 0 0 0 35.791 2.513 A 4.153 4.153 0 0 0 35.672 3.536 A 3.116 3.116 0 0 0 35.928 4.794 A 3.455 3.455 0 0 0 36.634 5.824 Q 37.589 6.804 38.927 6.812 Z" vector-effect="non-scaling-stroke"/></g></svg>