<svg width="484.6" height="95.501" viewBox="0 0 484.6 95.501" xmlns="http://www.w3.org/2000/svg"><g id="svgGroup" stroke-linecap="round" fill-rule="evenodd" font-size="9pt" stroke="#ffffff" stroke-width="0.25mm" fill="#ffffff" style="stroke:#ffffff;stroke-width:0.25mm;fill:#ffffff"><path d="M 218.7 67.601 L 223.5 59.601 Q 227.1 62.601 231.6 64.501 A 23.348 23.348 0 0 0 236.97 66.011 A 32.118 32.118 0 0 0 242.1 66.401 A 27.981 27.981 0 0 0 246.647 66.054 Q 249.07 65.655 251.031 64.794 A 13.701 13.701 0 0 0 253.5 63.401 Q 257.548 60.509 257.695 55.666 A 12.116 12.116 0 0 0 257.7 55.301 A 11.94 11.94 0 0 0 257.363 52.408 A 9.816 9.816 0 0 0 256.5 50.151 A 8.097 8.097 0 0 0 255.3 48.495 Q 254.03 47.114 251.884 45.772 A 25.81 25.81 0 0 0 251.85 45.751 Q 248.734 43.809 242.965 41.581 A 118.584 118.584 0 0 0 241.7 41.101 Q 234.5 38.301 230.2 35.451 A 21.931 21.931 0 0 1 227.111 33.003 Q 225.394 31.353 224.338 29.488 A 13.303 13.303 0 0 1 224.05 28.951 Q 222.2 25.301 222.2 20.301 Q 222.2 15.301 224.95 11.251 Q 227.7 7.201 233.05 4.751 A 25.558 25.558 0 0 1 238.95 2.916 Q 242.193 2.301 246 2.301 Q 252.2 2.301 257.15 3.551 Q 262.1 4.801 266.8 7.101 L 263.3 15.201 A 31.496 31.496 0 0 0 259.174 13.182 A 41.686 41.686 0 0 0 255.35 11.851 Q 250.8 10.501 245.8 10.501 A 27.187 27.187 0 0 0 241.77 10.781 Q 239.638 11.101 237.9 11.787 A 12.616 12.616 0 0 0 235.4 13.101 A 9.902 9.902 0 0 0 233.237 15.065 A 7.359 7.359 0 0 0 231.6 19.801 A 10.464 10.464 0 0 0 231.892 22.322 A 8.562 8.562 0 0 0 232.7 24.401 Q 233.756 26.32 236.791 28.147 A 23.503 23.503 0 0 0 237.05 28.301 A 33.003 33.003 0 0 0 239.266 29.473 Q 241.535 30.576 244.746 31.823 A 130.016 130.016 0 0 0 246.8 32.601 A 81.228 81.228 0 0 1 251.778 34.63 Q 256.164 36.601 259.15 38.701 A 26.044 26.044 0 0 1 262.19 41.178 Q 264.413 43.307 265.6 45.651 A 17.579 17.579 0 0 1 267.341 51.513 A 22.155 22.155 0 0 1 267.5 54.201 A 21.71 21.71 0 0 1 266.833 59.701 A 17.105 17.105 0 0 1 264.25 65.301 Q 261 69.901 255.25 72.301 A 30.521 30.521 0 0 1 247.84 74.305 A 40.027 40.027 0 0 1 242.1 74.701 Q 234.8 74.701 228.8 72.751 A 38.206 38.206 0 0 1 223.433 70.568 A 28.433 28.433 0 0 1 218.7 67.601 Z M 403.5 95.501 L 394.5 95.501 L 394.5 34.801 A 11.015 11.015 0 0 0 394.373 33.065 Q 394.042 30.999 392.85 29.951 A 5.718 5.718 0 0 0 390.06 28.628 A 7.991 7.991 0 0 0 388.6 28.501 L 390.5 21.501 Q 396.362 21.501 399.422 24.464 A 10.15 10.15 0 0 1 402 28.801 Q 402.955 27.368 405.052 25.478 A 38.58 38.58 0 0 1 405.25 25.301 A 18.902 18.902 0 0 1 407.951 23.317 A 25.569 25.569 0 0 1 410.85 21.801 A 16.955 16.955 0 0 1 415.409 20.512 A 21.886 21.886 0 0 1 418.5 20.301 Q 424.5 20.301 429.75 23.451 A 22.329 22.329 0 0 1 436.928 30.418 A 27.464 27.464 0 0 1 438.2 32.551 Q 441.4 38.501 441.4 47.001 Q 441.4 55.301 438.2 61.551 A 27.846 27.846 0 0 1 434.266 67.382 A 23.029 23.029 0 0 1 429.85 71.251 Q 424.7 74.701 418.7 74.701 Q 414.1 74.701 410.1 72.851 A 30.352 30.352 0 0 1 406.684 71.012 Q 404.891 69.885 403.5 68.601 L 403.5 95.501 Z M 134 73.501 L 124.6 73.501 L 103.7 23.901 L 111.9 20.501 L 129.6 63.301 L 147.3 20.501 L 155 23.901 L 134 73.501 Z M 455.9 55.601 L 455.9 31.201 L 446.9 31.201 L 446.9 23.401 L 456.1 23.401 L 458 7.001 L 464.9 7.001 L 464.9 23.401 L 479.3 23.401 L 479.3 31.201 L 464.9 31.201 L 464.9 56.301 A 21.559 21.559 0 0 0 465.068 59.097 Q 465.541 62.703 467.35 64.401 Q 469.8 66.701 473.2 66.701 Q 475.7 66.701 477.95 65.901 Q 480.2 65.101 482.1 64.001 L 484.6 71.201 A 18.546 18.546 0 0 1 482.982 72.057 Q 482.18 72.435 481.234 72.809 A 43.365 43.365 0 0 1 479.2 73.551 Q 475.8 74.701 472.1 74.701 Q 464.6 74.701 460.25 69.751 A 16.116 16.116 0 0 1 457.022 63.848 Q 456.259 61.418 456.015 58.481 A 34.777 34.777 0 0 1 455.9 55.601 Z M 316.4 23.401 L 313.7 31.001 A 30.422 30.422 0 0 0 310.796 29.725 A 23.42 23.42 0 0 0 308.35 28.951 A 20.543 20.543 0 0 0 305.307 28.425 A 26.355 26.355 0 0 0 302.7 28.301 A 15.889 15.889 0 0 0 295.447 29.943 A 16.132 16.132 0 0 0 290.95 33.351 Q 286.2 38.401 286.2 47.301 A 25.192 25.192 0 0 0 286.905 53.361 A 21.45 21.45 0 0 0 288.2 57.101 A 18.564 18.564 0 0 0 291.11 61.678 A 16.275 16.275 0 0 0 293.75 64.101 Q 297.3 66.701 302.1 66.701 Q 305.265 66.701 307.668 66.111 A 15.08 15.08 0 0 0 308.6 65.851 Q 311.289 65.004 314.376 63.413 A 49.095 49.095 0 0 0 314.4 63.401 L 317.2 71.001 Q 314.1 72.701 310.25 73.701 Q 306.4 74.701 301.5 74.701 A 26.803 26.803 0 0 1 294.461 73.811 A 22.074 22.074 0 0 1 288.55 71.251 Q 283 67.801 280 61.651 Q 277 55.501 277 47.501 Q 277 40.001 280.05 33.801 Q 283.1 27.601 288.8 23.951 A 23.067 23.067 0 0 1 298.468 20.53 A 29.608 29.608 0 0 1 302.2 20.301 Q 306.6 20.301 309.95 21.101 Q 313.3 21.901 316.4 23.401 Z M 86.6 25.701 L 86.6 21.501 L 94.8 21.501 L 94.8 60.901 A 12.15 12.15 0 0 0 94.902 62.536 Q 95.234 64.97 96.65 65.851 Q 98.5 67.001 100.7 67.001 L 98.8 74.001 A 17.722 17.722 0 0 1 94.535 73.528 Q 88.898 72.128 87.303 66.581 A 13.59 13.59 0 0 1 87.2 66.201 A 21.307 21.307 0 0 1 84.09 69.627 A 28.498 28.498 0 0 1 80.95 72.051 Q 77 74.701 70.9 74.701 Q 64.4 74.701 59.1 71.401 A 22.947 22.947 0 0 1 51.687 63.874 A 27.923 27.923 0 0 1 50.65 62.051 A 27.228 27.228 0 0 1 48.02 54.108 A 36.644 36.644 0 0 1 47.5 47.801 A 33.142 33.142 0 0 1 48.497 39.532 A 27.968 27.968 0 0 1 50.65 33.801 Q 53.8 27.601 59.35 23.951 A 22.297 22.297 0 0 1 70.545 20.344 A 27.388 27.388 0 0 1 72.1 20.301 A 22.584 22.584 0 0 1 76.894 20.791 A 18.703 18.703 0 0 1 80.25 21.851 A 26.002 26.002 0 0 1 84.537 24.144 A 22.103 22.103 0 0 1 86.6 25.701 Z M 197.6 25.701 L 197.6 21.501 L 205.8 21.501 L 205.8 60.901 A 12.15 12.15 0 0 0 205.902 62.536 Q 206.234 64.97 207.65 65.851 Q 209.5 67.001 211.7 67.001 L 209.8 74.001 A 17.722 17.722 0 0 1 205.535 73.528 Q 199.898 72.128 198.303 66.581 A 13.59 13.59 0 0 1 198.2 66.201 A 21.307 21.307 0 0 1 195.09 69.627 A 28.498 28.498 0 0 1 191.95 72.051 Q 188 74.701 181.9 74.701 Q 175.4 74.701 170.1 71.401 A 22.947 22.947 0 0 1 162.687 63.874 A 27.923 27.923 0 0 1 161.65 62.051 A 27.228 27.228 0 0 1 159.02 54.108 A 36.644 36.644 0 0 1 158.5 47.801 A 33.142 33.142 0 0 1 159.497 39.532 A 27.968 27.968 0 0 1 161.65 33.801 Q 164.8 27.601 170.35 23.951 A 22.297 22.297 0 0 1 181.545 20.344 A 27.388 27.388 0 0 1 183.1 20.301 A 22.584 22.584 0 0 1 187.894 20.791 A 18.703 18.703 0 0 1 191.25 21.851 A 26.002 26.002 0 0 1 195.537 24.144 A 22.103 22.103 0 0 1 197.6 25.701 Z M 0 68.901 L 4.6 61.601 A 16.858 16.858 0 0 0 8.67 64.716 A 19.43 19.43 0 0 0 9.4 65.101 A 13.114 13.114 0 0 0 13.275 66.36 A 11.941 11.941 0 0 0 15.1 66.501 A 10.741 10.741 0 0 0 18.607 65.953 A 8.936 8.936 0 0 0 22.7 63.051 Q 25.5 59.601 25.5 51.401 L 25.5 3.501 L 35 3.501 L 35 50.401 A 47.346 47.346 0 0 1 34.573 56.999 Q 33.481 64.732 29.6 68.901 A 17.93 17.93 0 0 1 17.808 74.586 A 24.68 24.68 0 0 1 15.4 74.701 A 23.443 23.443 0 0 1 7.322 73.318 A 22.405 22.405 0 0 1 6.75 73.101 A 22.827 22.827 0 0 1 2.828 71.118 A 18.183 18.183 0 0 1 0 68.901 Z M 336.7 73.501 L 327.7 73.501 L 327.7 21.501 L 336.4 21.501 L 336.4 32.801 Q 337.7 29.501 339.9 26.651 Q 342.1 23.801 345.4 22.051 A 14.817 14.817 0 0 1 350.08 20.527 A 19.459 19.459 0 0 1 353.1 20.301 Q 354.6 20.301 356.1 20.451 A 18.972 18.972 0 0 1 357.155 20.584 Q 357.655 20.663 358.082 20.763 A 8.817 8.817 0 0 1 358.6 20.901 L 355.9 30.201 A 9.763 9.763 0 0 0 353.755 29.588 Q 352.659 29.401 351.4 29.401 A 12.958 12.958 0 0 0 344.77 31.246 A 15.609 15.609 0 0 0 344.35 31.501 Q 341.022 33.587 338.878 37.943 A 22.927 22.927 0 0 0 338.85 38.001 Q 337.087 41.608 336.77 46.828 A 39.09 39.09 0 0 0 336.7 49.201 L 336.7 73.501 Z M 376.6 73.501 L 367.6 73.501 L 367.6 21.501 L 376.6 21.501 L 376.6 73.501 Z M 85.8 60.201 L 85.8 32.301 Q 83.1 30.401 79.85 29.251 Q 76.6 28.101 73 28.101 A 15.924 15.924 0 0 0 68.029 28.854 A 14.024 14.024 0 0 0 64.55 30.551 A 16.301 16.301 0 0 0 59.531 35.974 A 19.962 19.962 0 0 0 58.8 37.351 A 20.663 20.663 0 0 0 57.047 43.027 A 27.678 27.678 0 0 0 56.7 47.501 Q 56.7 53.101 58.8 57.451 A 17.602 17.602 0 0 0 61.906 61.997 A 15.697 15.697 0 0 0 64.6 64.251 Q 68.3 66.701 72.9 66.701 Q 76.7 66.701 80.1 64.851 Q 83.5 63.001 85.8 60.201 Z M 196.8 60.201 L 196.8 32.301 Q 194.1 30.401 190.85 29.251 Q 187.6 28.101 184 28.101 A 15.924 15.924 0 0 0 179.029 28.854 A 14.024 14.024 0 0 0 175.55 30.551 A 16.301 16.301 0 0 0 170.531 35.974 A 19.962 19.962 0 0 0 169.8 37.351 A 20.663 20.663 0 0 0 168.047 43.027 A 27.678 27.678 0 0 0 167.7 47.501 Q 167.7 53.101 169.8 57.451 A 17.602 17.602 0 0 0 172.906 61.997 A 15.697 15.697 0 0 0 175.6 64.251 Q 179.3 66.701 183.9 66.701 Q 187.7 66.701 191.1 64.851 Q 194.5 63.001 196.8 60.201 Z M 403.5 34.901 L 403.5 60.501 Q 406.1 63.201 409.5 64.951 Q 412.9 66.701 416.9 66.701 Q 423.594 66.701 427.817 61.517 A 17.38 17.38 0 0 0 427.95 61.351 A 18.792 18.792 0 0 0 431.444 54.045 Q 432.105 51.355 432.188 48.209 A 34.555 34.555 0 0 0 432.2 47.301 Q 432.2 41.301 430.05 37.001 Q 427.9 32.701 424.35 30.401 Q 420.8 28.101 416.5 28.101 A 14.741 14.741 0 0 0 410.873 29.164 A 14.054 14.054 0 0 0 408.75 30.251 Q 405.3 32.401 403.5 34.901 Z M 367.737 10.789 A 5.973 5.973 0 0 0 372.1 12.601 A 8.175 8.175 0 0 0 373.596 12.47 A 5.647 5.647 0 0 0 376.7 10.851 Q 378.4 9.101 378.4 6.301 A 7.26 7.26 0 0 0 378.4 6.22 A 6.06 6.06 0 0 0 376.55 1.851 A 7.395 7.395 0 0 0 376.492 1.793 A 6.059 6.059 0 0 0 372.1 0.001 A 8.264 8.264 0 0 0 370.444 0.158 A 5.661 5.661 0 0 0 367.5 1.701 A 5.588 5.588 0 0 0 366.029 4.333 A 7.987 7.987 0 0 0 365.8 6.301 A 5.992 5.992 0 0 0 366.292 8.719 A 6.643 6.643 0 0 0 367.65 10.701 A 7.466 7.466 0 0 0 367.737 10.789 Z" vector-effect="non-scaling-stroke"/></g></svg>