<svg width="438.402" height="94.001" viewBox="0 0 438.402 94.001" xmlns="http://www.w3.org/2000/svg"><g id="svgGroup" stroke-linecap="round" fill-rule="evenodd" font-size="9pt" stroke="#4db33d" stroke-width="0.25mm" fill="#4db33d" style="stroke:#4db33d;stroke-width:0.25mm;fill:#4db33d"><path d="M 9 70.801 L 0 70.801 L 0 0.801 L 13.3 0.801 L 32.7 45.101 L 51.8 0.801 L 65.4 0.801 L 65.4 70.801 L 55.9 70.801 L 55.9 12.901 L 37.2 55.001 L 27.8 55.001 L 9 12.901 L 9 70.801 Z M 203.8 89.601 L 207.1 81.801 A 20.562 20.562 0 0 0 210.917 84.174 A 24.737 24.737 0 0 0 212.7 84.951 Q 215.459 86.028 219.259 86.177 A 31.788 31.788 0 0 0 220.5 86.201 A 21.701 21.701 0 0 0 225.021 85.758 Q 227.922 85.14 230.122 83.66 A 12.576 12.576 0 0 0 231.65 82.451 A 11.352 11.352 0 0 0 234.557 77.957 Q 235.7 74.857 235.7 70.501 L 235.7 64.101 Q 233.7 66.501 229.95 68.651 Q 226.2 70.801 221 70.801 Q 215.1 70.801 209.8 67.751 A 22.236 22.236 0 0 1 202.508 60.913 A 27.437 27.437 0 0 1 201.2 58.801 A 25.181 25.181 0 0 1 198.487 51.177 A 35.033 35.033 0 0 1 197.9 44.601 A 32.06 32.06 0 0 1 198.817 36.793 A 26.682 26.682 0 0 1 201.15 30.701 A 25.706 25.706 0 0 1 207.214 23.078 A 24.448 24.448 0 0 1 209.9 21.101 Q 215.4 17.601 222 17.601 A 22.366 22.366 0 0 1 226.82 18.102 A 18.715 18.715 0 0 1 230 19.101 A 25.705 25.705 0 0 1 233.828 21.069 A 20.998 20.998 0 0 1 236.2 22.801 L 236.2 18.801 L 244.4 18.801 L 244.4 69.601 Q 244.4 78.201 241.4 83.601 Q 238.4 89.001 233.05 91.501 A 25.811 25.811 0 0 1 226.446 93.522 A 35.243 35.243 0 0 1 220.5 94.001 Q 215.9 94.001 211.55 92.901 A 27.232 27.232 0 0 1 206.25 90.983 A 23.518 23.518 0 0 1 203.8 89.601 Z M 151.2 70.801 L 142.2 70.801 L 142.2 18.801 L 150.9 18.801 L 150.9 27.501 Q 153.7 23.301 158.05 20.451 A 17.316 17.316 0 0 1 165.156 17.826 A 22.629 22.629 0 0 1 168.4 17.601 A 23.225 23.225 0 0 1 173.465 18.118 Q 178.559 19.257 181.55 22.901 Q 185.675 27.926 185.888 36.009 A 33.764 33.764 0 0 1 185.9 36.901 L 185.9 70.801 L 176.9 70.801 L 176.9 37.901 A 19.265 19.265 0 0 0 176.558 34.16 Q 176.119 31.945 175.119 30.197 A 10.966 10.966 0 0 0 174.25 28.901 A 8.579 8.579 0 0 0 167.973 25.547 A 12.061 12.061 0 0 0 166.9 25.501 A 13.122 13.122 0 0 0 160.051 27.464 A 17.353 17.353 0 0 0 158.2 28.751 Q 154.1 32.001 151.2 36.401 L 151.2 70.801 Z M 388.9 70.601 L 388.9 1.001 A 100.907 100.907 0 0 1 390.756 0.807 Q 393.653 0.53 397.476 0.308 A 270.552 270.552 0 0 1 397.6 0.301 A 168.416 168.416 0 0 1 402.437 0.096 Q 404.908 0.024 407.645 0.007 A 285.352 285.352 0 0 1 409.5 0.001 Q 417.9 0.001 423.759 2.089 A 22.604 22.604 0 0 1 429.2 4.851 A 16.711 16.711 0 0 1 433.763 9.508 Q 435.954 12.941 436.091 17.401 A 19.526 19.526 0 0 1 436.1 18.001 A 17.052 17.052 0 0 1 435.473 22.72 A 13.798 13.798 0 0 1 433.15 27.351 Q 430.2 31.201 424.6 33.701 A 30.217 30.217 0 0 1 429.236 35.761 Q 432.713 37.694 434.9 40.351 Q 438.4 44.601 438.4 50.801 Q 438.4 60.115 431.19 65.729 A 22.979 22.979 0 0 1 430.9 65.951 A 24.681 24.681 0 0 1 423.523 69.661 Q 417.479 71.601 409.1 71.601 A 221.836 221.836 0 0 1 401.02 71.459 A 187.566 187.566 0 0 1 397.55 71.301 A 227.449 227.449 0 0 1 394.966 71.144 Q 392.159 70.958 390.095 70.738 A 65.535 65.535 0 0 1 388.9 70.601 Z M 320.7 70.601 L 320.7 1.001 Q 325.4 0.501 329.9 0.251 A 151.31 151.31 0 0 1 334.086 0.08 Q 336.938 0.001 340.2 0.001 A 48.608 48.608 0 0 1 347.544 0.527 Q 351.478 1.129 354.81 2.418 A 29.198 29.198 0 0 1 355.75 2.801 A 30.978 30.978 0 0 1 363.039 7.121 A 27.223 27.223 0 0 1 366.55 10.501 Q 370.8 15.401 372.85 21.851 A 44.256 44.256 0 0 1 374.822 32.846 A 51.506 51.506 0 0 1 374.9 35.701 A 45.309 45.309 0 0 1 373.419 47.398 A 41.802 41.802 0 0 1 372.8 49.501 Q 370.7 56.001 366.35 60.951 Q 362 65.901 355.25 68.751 Q 348.975 71.4 340.409 71.587 A 60.192 60.192 0 0 1 339.1 71.601 A 186.98 186.98 0 0 1 335.029 71.558 Q 333.015 71.514 331.222 71.425 A 101.5 101.5 0 0 1 329.15 71.301 Q 324.9 71.001 320.7 70.601 Z M 91 68.551 A 24.559 24.559 0 0 0 95.598 70.64 Q 99.653 72.001 104.3 72.001 Q 111.7 72.001 117.55 68.601 Q 123.4 65.201 126.8 59.051 A 26.255 26.255 0 0 0 129.453 51.909 A 34.184 34.184 0 0 0 130.2 44.601 A 34.542 34.542 0 0 0 129.715 38.692 A 25.795 25.795 0 0 0 126.75 30.251 Q 123.3 24.201 117.45 20.901 A 24.848 24.848 0 0 0 112.809 18.874 A 27.738 27.738 0 0 0 104.3 17.601 A 31.325 31.325 0 0 0 102.72 17.64 A 26.169 26.169 0 0 0 91.1 20.901 Q 85.2 24.201 81.8 30.301 A 26.023 26.023 0 0 0 79.051 37.891 A 35.006 35.006 0 0 0 78.4 44.801 A 34.82 34.82 0 0 0 78.665 49.154 A 27.451 27.451 0 0 0 81.75 58.951 Q 85.1 65.101 91 68.551 Z M 268.5 68.551 A 24.559 24.559 0 0 0 273.098 70.64 Q 277.153 72.001 281.8 72.001 Q 289.2 72.001 295.05 68.601 Q 300.9 65.201 304.3 59.051 A 26.255 26.255 0 0 0 306.953 51.909 A 34.184 34.184 0 0 0 307.7 44.601 A 34.542 34.542 0 0 0 307.215 38.692 A 25.795 25.795 0 0 0 304.25 30.251 Q 300.8 24.201 294.95 20.901 A 24.848 24.848 0 0 0 290.309 18.874 A 27.738 27.738 0 0 0 281.8 17.601 A 31.325 31.325 0 0 0 280.22 17.64 A 26.169 26.169 0 0 0 268.6 20.901 Q 262.7 24.201 259.3 30.301 A 26.023 26.023 0 0 0 256.551 37.891 A 35.006 35.006 0 0 0 255.9 44.801 A 34.82 34.82 0 0 0 256.165 49.154 A 27.451 27.451 0 0 0 259.25 58.951 Q 262.6 65.101 268.5 68.551 Z M 330.2 8.701 L 330.2 62.801 Q 332.3 63.101 334.6 63.201 A 107.265 107.265 0 0 0 338.163 63.294 A 121.297 121.297 0 0 0 339.4 63.301 A 37.906 37.906 0 0 0 345.564 62.829 Q 350.493 62.015 354.1 59.801 Q 359.8 56.301 362.5 50.051 A 32.292 32.292 0 0 0 364.754 41.977 A 42.502 42.502 0 0 0 365.2 35.701 Q 365.2 28.501 362.5 22.201 Q 359.8 15.901 354.2 12.051 A 20.895 20.895 0 0 0 347.148 8.991 Q 344.307 8.312 340.996 8.216 A 38.008 38.008 0 0 0 339.9 8.201 Q 337 8.201 334.6 8.351 Q 332.2 8.501 330.2 8.701 Z M 104.3 64.001 Q 112.2 64.001 116.6 58.651 A 18.802 18.802 0 0 0 120.419 50.561 A 27.105 27.105 0 0 0 121 44.801 Q 121 39.601 118.8 35.251 A 19.198 19.198 0 0 0 114.628 29.682 A 18.17 18.17 0 0 0 112.85 28.251 Q 109.1 25.601 104.3 25.601 A 19.249 19.249 0 0 0 99.074 26.272 A 14.037 14.037 0 0 0 92 30.801 A 17.878 17.878 0 0 0 88.326 38.174 Q 87.6 41.107 87.6 44.601 Q 87.6 49.801 89.8 54.251 A 19.437 19.437 0 0 0 93.33 59.29 A 17.627 17.627 0 0 0 95.75 61.351 Q 99.5 64.001 104.3 64.001 Z M 281.8 64.001 Q 289.7 64.001 294.1 58.651 A 18.802 18.802 0 0 0 297.919 50.561 A 27.105 27.105 0 0 0 298.5 44.801 Q 298.5 39.601 296.3 35.251 A 19.198 19.198 0 0 0 292.128 29.682 A 18.17 18.17 0 0 0 290.35 28.251 Q 286.6 25.601 281.8 25.601 A 19.249 19.249 0 0 0 276.574 26.272 A 14.037 14.037 0 0 0 269.5 30.801 A 17.878 17.878 0 0 0 265.826 38.174 Q 265.1 41.107 265.1 44.601 Q 265.1 49.801 267.3 54.251 A 19.437 19.437 0 0 0 270.83 59.29 A 17.627 17.627 0 0 0 273.25 61.351 Q 277 64.001 281.8 64.001 Z M 235.4 56.801 L 235.4 29.601 Q 233.234 28.026 230.197 26.741 A 36.018 36.018 0 0 0 230.1 26.701 A 16.249 16.249 0 0 0 226.296 25.649 A 22.135 22.135 0 0 0 222.9 25.401 Q 218.8 25.401 215.2 27.601 Q 211.6 29.801 209.35 33.951 Q 207.1 38.101 207.1 44.101 A 24.32 24.32 0 0 0 207.578 49.037 A 18.311 18.311 0 0 0 209.35 54.001 A 18.576 18.576 0 0 0 212.261 58.075 A 15.802 15.802 0 0 0 215.2 60.501 Q 218.8 62.801 223 62.801 A 15.276 15.276 0 0 0 227.578 62.132 A 13.606 13.606 0 0 0 230.2 61.001 A 20.855 20.855 0 0 0 233.181 58.985 A 16.309 16.309 0 0 0 235.4 56.801 Z M 409.8 38.401 L 398.4 38.401 L 398.4 63.101 Q 403.7 63.701 409.8 63.701 Q 418.7 63.701 423.7 60.501 Q 428.7 57.301 428.7 51.201 A 11.728 11.728 0 0 0 427.828 46.601 Q 426.726 43.988 424.233 42.113 A 14.027 14.027 0 0 0 423.8 41.801 A 16.7 16.7 0 0 0 419.126 39.599 Q 415.203 38.401 409.8 38.401 Z M 398.4 8.201 L 398.4 31.001 L 409.4 31.001 Q 417.3 31.001 421.95 27.701 Q 426.6 24.401 426.6 19.201 A 10.798 10.798 0 0 0 425.926 15.301 Q 424.839 12.471 422 10.651 A 16.643 16.643 0 0 0 417.514 8.687 Q 414.025 7.701 409.4 7.701 Q 406.1 7.701 403.4 7.851 Q 400.7 8.001 398.4 8.201 Z" vector-effect="non-scaling-stroke"/></g></svg>