<svg width="174.149" height="50.544" viewBox="0 0 174.149 50.544" xmlns="http://www.w3.org/2000/svg"><g id="svgGroup" stroke-linecap="round" fill-rule="evenodd" font-size="9pt" stroke="#ffffff" stroke-width="0.1mm" fill="#ffffff" style="stroke:#ffffff;stroke-width:0.1mm;fill:#ffffff"><path d="M 4.68 38.48 L 0 38.48 L 0 2.08 L 6.552 2.08 L 22.62 32.344 L 22.62 2.08 L 27.3 2.08 L 27.3 38.48 L 20.852 38.48 L 4.68 8.424 L 4.68 38.48 Z M 153.712 36.296 L 155.688 32.396 A 9.65 9.65 0 0 0 157.323 33.501 Q 158.125 33.937 159.079 34.288 A 15.927 15.927 0 0 0 159.094 34.294 A 12.518 12.518 0 0 0 163.052 35.041 A 14.282 14.282 0 0 0 163.488 35.048 Q 166.4 35.048 167.882 34.086 Q 169.364 33.124 169.364 31.616 Q 169.364 30.524 168.818 29.692 A 3.32 3.32 0 0 0 168.335 29.123 Q 167.808 28.618 166.938 28.122 A 11.6 11.6 0 0 0 166.816 28.054 Q 165.36 27.248 162.604 26.312 Q 158.808 25.012 156.91 23.218 A 5.889 5.889 0 0 1 155.197 20.1 A 8.733 8.733 0 0 1 155.012 18.252 A 6.302 6.302 0 0 1 157.065 13.564 A 9.081 9.081 0 0 1 157.742 12.974 Q 160.472 10.816 165.308 10.816 A 21.213 21.213 0 0 1 167.62 10.936 Q 168.82 11.068 169.869 11.344 A 13.122 13.122 0 0 1 169.936 11.362 Q 171.964 11.908 173.576 12.74 L 172.276 16.588 Q 170.872 15.756 169.078 15.236 A 13.012 13.012 0 0 0 166.747 14.795 A 16.555 16.555 0 0 0 165.1 14.716 A 10.728 10.728 0 0 0 163.573 14.817 Q 162.796 14.929 162.166 15.165 A 4.425 4.425 0 0 0 160.992 15.808 A 4.847 4.847 0 0 0 160.286 16.47 Q 159.588 17.283 159.588 18.2 A 2.559 2.559 0 0 0 160.365 20.047 A 3.683 3.683 0 0 0 160.68 20.332 A 5.137 5.137 0 0 0 161.356 20.784 Q 162.538 21.461 164.839 22.221 A 43.951 43.951 0 0 0 164.944 22.256 A 35.232 35.232 0 0 1 167.576 23.243 Q 170.079 24.307 171.513 25.495 A 7.772 7.772 0 0 1 172.12 26.052 A 7.07 7.07 0 0 1 174.14 30.86 A 9.305 9.305 0 0 1 174.148 31.252 Q 174.148 34.761 171.417 36.845 A 8.641 8.641 0 0 1 171.21 36.998 Q 168.745 38.765 164.872 39.049 A 21.02 21.02 0 0 1 163.332 39.104 A 20.795 20.795 0 0 1 160.284 38.89 A 16.093 16.093 0 0 1 157.794 38.324 A 16.059 16.059 0 0 1 155.797 37.552 Q 154.767 37.068 153.945 36.471 A 9.479 9.479 0 0 1 153.712 36.296 Z M 85.124 14.144 L 85.124 0 L 89.804 0 L 89.804 31.928 A 6.318 6.318 0 0 0 89.857 32.779 Q 89.99 33.757 90.461 34.253 A 1.542 1.542 0 0 0 90.766 34.502 Q 91.728 35.1 92.872 35.1 L 91.884 38.74 A 9.284 9.284 0 0 1 89.67 38.497 Q 86.673 37.76 85.852 34.788 A 10.133 10.133 0 0 1 84.38 36.427 Q 83.617 37.118 82.654 37.752 Q 80.714 39.029 77.824 39.1 A 13.996 13.996 0 0 1 77.48 39.104 Q 74.152 39.104 71.396 37.388 A 11.8 11.8 0 0 1 67.476 33.336 A 14.364 14.364 0 0 1 67.028 32.526 A 14.317 14.317 0 0 1 65.682 28.396 A 19.355 19.355 0 0 1 65.416 25.116 A 17.649 17.649 0 0 1 65.878 21.001 A 14.541 14.541 0 0 1 67.054 17.784 A 14.191 14.191 0 0 1 69.456 14.357 A 12.577 12.577 0 0 1 71.422 12.688 Q 74.152 10.816 77.428 10.816 A 11.254 11.254 0 0 1 79.65 11.025 A 8.29 8.29 0 0 1 82.082 11.908 A 17.859 17.859 0 0 1 83.424 12.734 Q 84.06 13.168 84.565 13.611 A 8.627 8.627 0 0 1 85.124 14.144 Z M 120.484 26.884 L 101.556 26.884 A 12.526 12.526 0 0 0 102.148 29.497 Q 102.767 31.263 103.917 32.513 A 7.79 7.79 0 0 0 104.208 32.812 A 7.355 7.355 0 0 0 108.173 34.794 A 10.411 10.411 0 0 0 109.98 34.944 Q 112.32 34.944 114.192 34.45 Q 116.064 33.956 117.78 33.176 L 118.872 37.18 A 21.2 21.2 0 0 1 116.618 38.026 A 26.969 26.969 0 0 1 114.66 38.558 A 20.235 20.235 0 0 1 112.012 38.984 A 27.053 27.053 0 0 1 109.408 39.104 Q 103.584 39.104 100.178 35.386 Q 96.772 31.668 96.772 24.96 A 18.386 18.386 0 0 1 97.205 20.893 A 14.997 14.997 0 0 1 98.306 17.706 Q 99.84 14.508 102.596 12.662 Q 105.352 10.816 108.992 10.816 A 14.848 14.848 0 0 1 111.837 11.074 Q 113.575 11.413 114.964 12.199 A 8.951 8.951 0 0 1 115.466 12.506 Q 118.04 14.196 119.34 17.056 A 14.656 14.656 0 0 1 120.602 22.185 A 17.386 17.386 0 0 1 120.64 23.348 A 39.106 39.106 0 0 1 120.489 26.83 A 36.141 36.141 0 0 1 120.484 26.884 Z M 133.9 49.348 L 135.044 45.448 A 6.262 6.262 0 0 0 135.741 45.815 Q 136.11 45.983 136.54 46.129 A 10.642 10.642 0 0 0 136.682 46.176 Q 137.644 46.488 138.632 46.488 Q 142.622 46.488 143.01 41.996 A 11.866 11.866 0 0 0 143.052 40.976 L 143.052 11.44 L 147.732 11.44 L 147.732 41.444 A 14.427 14.427 0 0 1 147.584 43.573 Q 147.321 45.335 146.588 46.618 A 7.577 7.577 0 0 1 144.904 48.672 A 6.955 6.955 0 0 1 143.52 49.582 A 9.167 9.167 0 0 1 140.228 50.498 A 11.186 11.186 0 0 1 139.204 50.544 Q 136.032 50.544 133.9 49.348 Z M 47.468 39.104 A 16.453 16.453 0 0 0 47.528 39.104 A 15.978 15.978 0 0 0 48.711 39.061 A 13.134 13.134 0 0 0 54.418 37.336 Q 57.46 35.568 59.228 32.37 A 13.653 13.653 0 0 0 60.608 28.657 A 17.776 17.776 0 0 0 60.996 24.856 A 17.962 17.962 0 0 0 60.744 21.784 A 13.413 13.413 0 0 0 59.202 17.394 Q 57.408 14.248 54.366 12.532 A 12.921 12.921 0 0 0 51.952 11.478 A 14.424 14.424 0 0 0 47.528 10.816 A 16.289 16.289 0 0 0 46.706 10.837 A 13.608 13.608 0 0 0 40.664 12.532 Q 37.596 14.248 35.828 17.42 A 13.532 13.532 0 0 0 34.398 21.367 A 18.203 18.203 0 0 0 34.06 24.96 A 18.107 18.107 0 0 0 34.198 27.224 A 14.274 14.274 0 0 0 35.802 32.318 Q 37.544 35.516 40.612 37.31 A 12.771 12.771 0 0 0 43.003 38.397 Q 45.085 39.095 47.468 39.104 Z M 47.528 34.944 A 9.746 9.746 0 0 0 50.246 34.585 A 7.28 7.28 0 0 0 53.924 32.162 A 9.777 9.777 0 0 0 55.91 27.955 A 14.094 14.094 0 0 0 56.212 24.96 A 11.116 11.116 0 0 0 55.575 21.171 A 10.407 10.407 0 0 0 55.068 19.994 Q 53.924 17.732 51.974 16.354 Q 50.024 14.976 47.528 14.976 A 10.009 10.009 0 0 0 44.81 15.325 A 7.299 7.299 0 0 0 41.132 17.68 Q 38.931 20.281 38.847 24.518 A 17.092 17.092 0 0 0 38.844 24.856 Q 38.844 27.56 39.988 29.874 A 10.107 10.107 0 0 0 41.824 32.495 A 9.166 9.166 0 0 0 43.082 33.566 Q 45.032 34.944 47.528 34.944 Z M 85.124 31.668 L 85.124 18.252 A 8.241 8.241 0 0 0 84.026 17.122 Q 83.307 16.504 82.368 15.938 Q 80.6 14.872 78.468 14.872 A 7.772 7.772 0 0 0 75.891 15.288 A 6.96 6.96 0 0 0 74.1 16.224 A 8.679 8.679 0 0 0 71.412 19.422 A 10.361 10.361 0 0 0 71.214 19.838 A 11.539 11.539 0 0 0 70.309 23.148 A 14.619 14.619 0 0 0 70.2 24.96 A 12.873 12.873 0 0 0 70.508 27.83 A 10.57 10.57 0 0 0 71.292 30.082 A 9.466 9.466 0 0 0 72.873 32.429 A 8.383 8.383 0 0 0 74.282 33.644 Q 76.18 34.944 78.52 34.944 Q 80.444 34.944 82.186 34.034 Q 83.928 33.124 85.124 31.668 Z M 101.504 23.088 L 116.324 23.088 A 12.665 12.665 0 0 0 116.114 20.704 Q 115.679 18.441 114.348 17.004 A 6.494 6.494 0 0 0 110.728 15.041 A 9.565 9.565 0 0 0 108.888 14.872 A 7.062 7.062 0 0 0 106.23 15.358 A 6.512 6.512 0 0 0 103.896 16.978 A 7.886 7.886 0 0 0 102.367 19.416 Q 101.722 20.992 101.504 23.088 Z M 128.109 38.096 A 3.337 3.337 0 0 0 130.52 39.104 A 4.475 4.475 0 0 0 130.844 39.092 A 3.36 3.36 0 0 0 133.016 38.142 A 3.136 3.136 0 0 0 133.844 36.779 A 4.001 4.001 0 0 0 134.004 35.62 Q 134.004 34.216 132.938 33.176 A 4.409 4.409 0 0 0 132.667 32.932 A 3.289 3.289 0 0 0 130.52 32.136 A 4.583 4.583 0 0 0 129.557 32.232 A 3.109 3.109 0 0 0 127.972 33.072 A 3.082 3.082 0 0 0 127.157 34.549 A 4.485 4.485 0 0 0 127.036 35.62 Q 127.036 37.024 128.076 38.064 A 4.325 4.325 0 0 0 128.109 38.096 Z M 145.267 6.812 A 3.682 3.682 0 0 0 145.288 6.812 A 4.251 4.251 0 0 0 146.066 6.744 A 2.937 2.937 0 0 0 147.68 5.902 A 3.004 3.004 0 0 0 148.421 4.619 A 3.906 3.906 0 0 0 148.564 3.536 A 3.776 3.776 0 0 0 148.564 3.494 A 3.151 3.151 0 0 0 147.602 1.222 A 3.846 3.846 0 0 0 147.572 1.192 A 3.15 3.15 0 0 0 145.288 0.26 A 4.297 4.297 0 0 0 144.427 0.342 A 2.944 2.944 0 0 0 142.896 1.144 A 2.906 2.906 0 0 0 142.131 2.513 A 4.153 4.153 0 0 0 142.012 3.536 A 3.116 3.116 0 0 0 142.268 4.794 A 3.455 3.455 0 0 0 142.974 5.824 Q 143.928 6.804 145.267 6.812 Z" vector-effect="non-scaling-stroke"/></g></svg>