<svg width="131.924" height="37.441" viewBox="0 0 131.924 37.441" xmlns="http://www.w3.org/2000/svg"><g id="svgGroup" stroke-linecap="round" fill-rule="evenodd" font-size="9pt" stroke="#61DBFB" stroke-width="0.1mm" fill="#61dbfb" style="stroke:#61DBFB;stroke-width:0.1mm;fill:#61dbfb"><path d="M 25.844 35.256 L 21.216 37.44 L 16.692 27.56 A 15.905 15.905 0 0 0 15.344 25.182 Q 14.042 23.308 12.376 22.308 Q 9.776 20.748 5.72 20.748 L 4.94 20.748 L 4.94 36.816 L 0 36.816 L 0 0.52 Q 2.756 0.26 5.278 0.13 A 97.729 97.729 0 0 1 8.563 0.019 A 117.66 117.66 0 0 1 10.66 0 A 26.21 26.21 0 0 1 14.321 0.239 Q 16.192 0.503 17.704 1.062 A 10.45 10.45 0 0 1 20.67 2.704 A 9.055 9.055 0 0 1 23.077 5.582 Q 24.024 7.407 24.024 9.672 A 10.338 10.338 0 0 1 23.686 12.387 A 7.63 7.63 0 0 1 21.762 15.782 A 10.932 10.932 0 0 1 19.201 17.695 Q 18.033 18.339 16.597 18.828 A 21.567 21.567 0 0 1 15.236 19.24 A 12.301 12.301 0 0 1 17.019 20.209 A 10.622 10.622 0 0 1 17.732 20.722 A 9.138 9.138 0 0 1 18.803 21.722 Q 19.265 22.223 19.711 22.834 A 15.233 15.233 0 0 1 19.838 23.01 Q 20.852 24.44 21.892 26.728 L 25.844 35.256 Z M 53.456 25.22 L 34.528 25.22 A 12.526 12.526 0 0 0 35.12 27.833 Q 35.739 29.599 36.889 30.849 A 7.79 7.79 0 0 0 37.18 31.148 A 7.355 7.355 0 0 0 41.145 33.13 A 10.411 10.411 0 0 0 42.952 33.28 Q 45.292 33.28 47.164 32.786 Q 49.036 32.292 50.752 31.512 L 51.844 35.516 A 21.2 21.2 0 0 1 49.59 36.362 A 26.969 26.969 0 0 1 47.632 36.894 A 20.235 20.235 0 0 1 44.984 37.32 A 27.053 27.053 0 0 1 42.38 37.44 Q 36.556 37.44 33.15 33.722 Q 29.744 30.004 29.744 23.296 A 18.386 18.386 0 0 1 30.177 19.229 A 14.997 14.997 0 0 1 31.278 16.042 Q 32.812 12.844 35.568 10.998 Q 38.324 9.152 41.964 9.152 A 14.848 14.848 0 0 1 44.809 9.41 Q 46.547 9.75 47.936 10.536 A 8.951 8.951 0 0 1 48.438 10.842 Q 51.012 12.532 52.312 15.392 A 14.656 14.656 0 0 1 53.574 20.521 A 17.386 17.386 0 0 1 53.612 21.684 A 39.106 39.106 0 0 1 53.461 25.167 A 36.141 36.141 0 0 1 53.456 25.22 Z M 117 27.508 L 117 14.82 L 112.32 14.82 L 112.32 10.764 L 117.104 10.764 L 118.092 2.236 L 121.68 2.236 L 121.68 10.764 L 129.168 10.764 L 129.168 14.82 L 121.68 14.82 L 121.68 27.872 Q 121.68 30.545 122.68 31.788 A 2.889 2.889 0 0 0 122.954 32.084 Q 124.228 33.28 125.996 33.28 Q 127.296 33.28 128.466 32.864 Q 129.636 32.448 130.624 31.876 L 131.924 35.62 A 9.644 9.644 0 0 1 131.082 36.065 Q 130.666 36.262 130.174 36.457 A 22.55 22.55 0 0 1 129.116 36.842 Q 127.348 37.44 125.424 37.44 A 9.53 9.53 0 0 1 122.729 37.078 A 7.246 7.246 0 0 1 119.262 34.866 A 8.38 8.38 0 0 1 117.583 31.797 Q 117.187 30.533 117.06 29.006 A 18.084 18.084 0 0 1 117 27.508 Z M 110.084 10.764 L 108.68 14.716 A 15.819 15.819 0 0 0 107.17 14.053 A 12.178 12.178 0 0 0 105.898 13.65 A 10.682 10.682 0 0 0 104.316 13.377 A 13.704 13.704 0 0 0 102.96 13.312 A 8.262 8.262 0 0 0 99.189 14.166 A 8.389 8.389 0 0 0 96.85 15.938 A 8.702 8.702 0 0 0 94.788 19.762 Q 94.431 21.118 94.386 22.727 A 16.782 16.782 0 0 0 94.38 23.192 A 13.1 13.1 0 0 0 94.747 26.344 A 11.154 11.154 0 0 0 95.42 28.288 A 9.653 9.653 0 0 0 96.933 30.669 A 8.463 8.463 0 0 0 98.306 31.928 Q 100.152 33.28 102.648 33.28 A 14.779 14.779 0 0 0 104.159 33.207 Q 104.903 33.131 105.543 32.974 A 7.841 7.841 0 0 0 106.028 32.838 Q 107.427 32.398 109.031 31.571 A 25.96 25.96 0 0 0 109.044 31.564 L 110.5 35.516 A 14.839 14.839 0 0 1 108.099 36.56 A 17.831 17.831 0 0 1 106.886 36.92 Q 104.884 37.44 102.336 37.44 A 13.938 13.938 0 0 1 98.676 36.978 A 11.479 11.479 0 0 1 95.602 35.646 Q 92.716 33.852 91.156 30.654 A 15.268 15.268 0 0 1 89.785 26.073 A 19.771 19.771 0 0 1 89.596 23.296 A 16.659 16.659 0 0 1 90.279 18.469 A 14.975 14.975 0 0 1 91.182 16.172 Q 92.768 12.948 95.732 11.05 A 11.995 11.995 0 0 1 100.759 9.271 A 15.396 15.396 0 0 1 102.7 9.152 Q 104.787 9.152 106.42 9.498 A 12.464 12.464 0 0 1 106.73 9.568 Q 108.472 9.984 110.084 10.764 Z M 78.364 11.96 L 78.364 9.776 L 82.628 9.776 L 82.628 30.264 A 6.318 6.318 0 0 0 82.681 31.115 Q 82.814 32.093 83.285 32.589 A 1.542 1.542 0 0 0 83.59 32.838 Q 84.552 33.436 85.696 33.436 L 84.708 37.076 Q 79.839 37.076 78.73 33.218 A 7.066 7.066 0 0 1 78.676 33.02 A 11.08 11.08 0 0 1 77.059 34.802 A 14.819 14.819 0 0 1 75.426 36.062 Q 73.496 37.357 70.579 37.435 A 14.146 14.146 0 0 1 70.2 37.44 Q 66.82 37.44 64.064 35.724 Q 61.308 34.008 59.67 30.862 A 14.158 14.158 0 0 1 58.302 26.732 A 19.055 19.055 0 0 1 58.032 23.452 Q 58.032 19.396 59.67 16.172 Q 61.308 12.948 64.194 11.05 A 11.595 11.595 0 0 1 70.015 9.175 A 14.242 14.242 0 0 1 70.824 9.152 A 11.744 11.744 0 0 1 73.317 9.407 A 9.726 9.726 0 0 1 75.062 9.958 Q 76.96 10.764 78.364 11.96 Z M 77.948 29.9 L 77.948 15.392 Q 76.544 14.404 74.854 13.806 Q 73.164 13.208 71.292 13.208 A 8.281 8.281 0 0 0 68.707 13.6 A 7.292 7.292 0 0 0 66.898 14.482 A 8.476 8.476 0 0 0 64.288 17.303 A 10.381 10.381 0 0 0 63.908 18.018 Q 62.816 20.28 62.816 23.296 Q 62.816 26.208 63.908 28.47 A 9.153 9.153 0 0 0 65.523 30.834 A 8.162 8.162 0 0 0 66.924 32.006 Q 68.848 33.28 71.24 33.28 Q 73.216 33.28 74.984 32.318 A 10.114 10.114 0 0 0 77.439 30.471 A 9.397 9.397 0 0 0 77.948 29.9 Z M 4.94 4.368 L 4.94 16.588 L 10.66 16.588 A 13.774 13.774 0 0 0 13.22 16.364 Q 14.721 16.08 15.918 15.437 A 7.774 7.774 0 0 0 16.744 14.924 A 5.35 5.35 0 0 0 19.035 11.012 A 7.546 7.546 0 0 0 19.084 10.14 A 5.102 5.102 0 0 0 17.382 6.259 A 6.902 6.902 0 0 0 16.9 5.85 A 7.24 7.24 0 0 0 14.631 4.695 Q 13.628 4.378 12.416 4.249 A 16.611 16.611 0 0 0 10.66 4.16 Q 9.009 4.16 7.676 4.206 A 61.914 61.914 0 0 0 7.488 4.212 Q 6.084 4.264 4.94 4.368 Z M 34.476 21.424 L 49.296 21.424 A 12.665 12.665 0 0 0 49.086 19.04 Q 48.651 16.777 47.32 15.34 A 6.494 6.494 0 0 0 43.7 13.377 A 9.565 9.565 0 0 0 41.86 13.208 A 7.062 7.062 0 0 0 39.202 13.695 A 6.512 6.512 0 0 0 36.868 15.314 A 7.886 7.886 0 0 0 35.339 17.753 Q 34.694 19.328 34.476 21.424 Z" vector-effect="non-scaling-stroke"/></g></svg>