<svg width="526.901" height="75.201" viewBox="0 0 526.901 75.201" xmlns="http://www.w3.org/2000/svg"><g id="svgGroup" stroke-linecap="round" fill-rule="evenodd" font-size="9pt" stroke="#ffffff" stroke-width="0.25mm" fill="#ffffff" style="stroke:#ffffff;stroke-width:0.25mm;fill:#ffffff"><path d="M 192.6 74 L 182.7 74 L 166.3 24.4 L 174.6 21.5 L 188 63.8 L 200.2 25.7 L 209.9 25.7 L 221.8 63.8 L 235.1 21.5 L 243.1 24.4 L 226.6 74 L 216.7 74 L 204.7 35.3 L 192.6 74 Z M 287.6 74 L 278.6 74 L 278.6 22 L 287.3 22 L 287.3 30.7 Q 290.1 26.5 294.45 23.65 A 17.316 17.316 0 0 1 301.556 21.025 A 22.629 22.629 0 0 1 304.8 20.8 A 23.225 23.225 0 0 1 309.865 21.318 Q 314.959 22.456 317.95 26.1 Q 322.075 31.126 322.288 39.209 A 33.764 33.764 0 0 1 322.3 40.1 L 322.3 74 L 313.3 74 L 313.3 41.1 A 19.265 19.265 0 0 0 312.958 37.359 Q 312.519 35.145 311.519 33.397 A 10.966 10.966 0 0 0 310.65 32.1 A 8.579 8.579 0 0 0 304.373 28.747 A 12.061 12.061 0 0 0 303.3 28.7 A 13.122 13.122 0 0 0 296.451 30.664 A 17.353 17.353 0 0 0 294.6 31.95 Q 290.5 35.2 287.6 39.6 L 287.6 74 Z M 440.8 69.8 L 444.6 62.3 A 18.557 18.557 0 0 0 447.744 64.426 Q 449.298 65.27 451.15 65.95 A 24.073 24.073 0 0 0 458.761 67.387 A 27.464 27.464 0 0 0 459.6 67.4 Q 464.992 67.4 467.835 65.685 A 7.738 7.738 0 0 0 468.05 65.55 Q 470.9 63.7 470.9 60.8 A 7.123 7.123 0 0 0 470.586 58.653 A 6.212 6.212 0 0 0 469.85 57.1 A 6.384 6.384 0 0 0 468.921 56.006 Q 467.907 55.034 466.234 54.081 A 22.3 22.3 0 0 0 466 53.95 A 28.462 28.462 0 0 0 464.006 52.957 Q 461.89 51.995 458.901 50.946 A 103.602 103.602 0 0 0 457.9 50.6 A 46.616 46.616 0 0 1 453.502 48.857 Q 451.388 47.883 449.712 46.795 A 19.335 19.335 0 0 1 446.95 44.65 A 11.324 11.324 0 0 1 443.656 38.654 A 16.794 16.794 0 0 1 443.3 35.1 Q 443.3 29.1 448.55 24.95 Q 452.954 21.469 460.208 20.908 A 37.527 37.527 0 0 1 463.1 20.8 A 40.794 40.794 0 0 1 467.546 21.031 Q 469.854 21.284 471.87 21.815 A 25.234 25.234 0 0 1 472 21.85 Q 475.9 22.9 479 24.5 L 476.5 31.9 Q 473.8 30.3 470.35 29.3 A 25.024 25.024 0 0 0 465.867 28.453 A 31.837 31.837 0 0 0 462.7 28.3 A 20.632 20.632 0 0 0 459.763 28.495 Q 456.677 28.94 454.8 30.4 A 9.322 9.322 0 0 0 453.442 31.673 Q 452.74 32.492 452.405 33.365 A 4.529 4.529 0 0 0 452.1 35 A 4.921 4.921 0 0 0 453.595 38.552 A 7.082 7.082 0 0 0 454.2 39.1 Q 456.265 40.772 462.198 42.734 A 84.459 84.459 0 0 0 462.4 42.8 A 67.753 67.753 0 0 1 467.462 44.698 Q 473.389 47.217 476.2 50.1 Q 480.1 54.1 480.1 60.1 Q 480.1 66.848 474.849 70.855 A 16.618 16.618 0 0 1 474.45 71.15 Q 469.71 74.547 462.262 75.095 A 40.423 40.423 0 0 1 459.3 75.2 Q 453.4 75.2 448.65 73.7 A 30.883 30.883 0 0 1 444.81 72.215 Q 442.829 71.284 441.248 70.136 A 18.229 18.229 0 0 1 440.8 69.8 Z M 487.6 69.8 L 491.4 62.3 A 18.557 18.557 0 0 0 494.544 64.426 Q 496.098 65.27 497.95 65.95 A 24.073 24.073 0 0 0 505.561 67.387 A 27.464 27.464 0 0 0 506.4 67.4 Q 511.792 67.4 514.635 65.685 A 7.738 7.738 0 0 0 514.85 65.55 Q 517.7 63.7 517.7 60.8 A 7.123 7.123 0 0 0 517.386 58.653 A 6.212 6.212 0 0 0 516.65 57.1 A 6.384 6.384 0 0 0 515.721 56.006 Q 514.707 55.034 513.034 54.081 A 22.3 22.3 0 0 0 512.8 53.95 A 28.462 28.462 0 0 0 510.806 52.957 Q 508.69 51.995 505.701 50.946 A 103.602 103.602 0 0 0 504.7 50.6 A 46.616 46.616 0 0 1 500.302 48.857 Q 498.188 47.883 496.512 46.795 A 19.335 19.335 0 0 1 493.75 44.65 A 11.324 11.324 0 0 1 490.456 38.654 A 16.794 16.794 0 0 1 490.1 35.1 Q 490.1 29.1 495.35 24.95 Q 499.754 21.469 507.008 20.908 A 37.527 37.527 0 0 1 509.9 20.8 A 40.794 40.794 0 0 1 514.346 21.031 Q 516.654 21.284 518.67 21.815 A 25.234 25.234 0 0 1 518.8 21.85 Q 522.7 22.9 525.8 24.5 L 523.3 31.9 Q 520.6 30.3 517.15 29.3 A 25.024 25.024 0 0 0 512.667 28.453 A 31.837 31.837 0 0 0 509.5 28.3 A 20.632 20.632 0 0 0 506.563 28.495 Q 503.477 28.94 501.6 30.4 A 9.322 9.322 0 0 0 500.242 31.673 Q 499.54 32.492 499.205 33.365 A 4.529 4.529 0 0 0 498.9 35 A 4.921 4.921 0 0 0 500.395 38.552 A 7.082 7.082 0 0 0 501 39.1 Q 503.065 40.772 508.998 42.734 A 84.459 84.459 0 0 0 509.2 42.8 A 67.753 67.753 0 0 1 514.262 44.698 Q 520.189 47.217 523 50.1 Q 526.9 54.1 526.9 60.1 Q 526.9 66.848 521.649 70.855 A 16.618 16.618 0 0 1 521.25 71.15 Q 516.51 74.547 509.062 75.095 A 40.423 40.423 0 0 1 506.1 75.2 Q 500.2 75.2 495.45 73.7 A 30.883 30.883 0 0 1 491.61 72.215 Q 489.629 71.284 488.048 70.136 A 18.229 18.229 0 0 1 487.6 69.8 Z M 31 74 L 21.5 74 L 21.5 12.4 L 0 12.4 L 0 4 L 52.5 4 L 52.5 12.4 L 31 12.4 L 31 74 Z M 372.2 27.2 L 372.2 0 L 381.2 0 L 381.2 61.4 A 12.15 12.15 0 0 0 381.302 63.036 Q 381.634 65.47 383.05 66.35 Q 384.9 67.5 387.1 67.5 L 385.2 74.5 Q 375.7 74.5 373.6 66.9 Q 371.4 70 367.45 72.6 Q 363.5 75.2 357.5 75.2 Q 351.1 75.2 345.8 71.9 A 22.692 22.692 0 0 1 338.262 64.109 A 27.622 27.622 0 0 1 337.4 62.55 A 27.533 27.533 0 0 1 334.812 54.608 A 37.221 37.221 0 0 1 334.3 48.3 A 33.94 33.94 0 0 1 335.189 40.386 A 27.963 27.963 0 0 1 337.45 34.2 A 27.291 27.291 0 0 1 342.069 27.609 A 24.186 24.186 0 0 1 345.85 24.4 Q 351.1 20.8 357.4 20.8 A 21.642 21.642 0 0 1 361.672 21.202 A 15.942 15.942 0 0 1 366.35 22.9 A 34.343 34.343 0 0 1 368.93 24.489 Q 370.154 25.324 371.125 26.174 A 16.59 16.59 0 0 1 372.2 27.2 Z M 434 23.9 L 431.3 31.5 A 30.422 30.422 0 0 0 428.396 30.224 A 23.42 23.42 0 0 0 425.95 29.45 A 20.543 20.543 0 0 0 422.907 28.924 A 26.355 26.355 0 0 0 420.3 28.8 A 15.889 15.889 0 0 0 413.047 30.443 A 16.132 16.132 0 0 0 408.55 33.85 Q 403.8 38.9 403.8 47.8 A 25.192 25.192 0 0 0 404.505 53.86 A 21.45 21.45 0 0 0 405.8 57.6 A 18.564 18.564 0 0 0 408.71 62.177 A 16.275 16.275 0 0 0 411.35 64.6 Q 414.9 67.2 419.7 67.2 Q 422.865 67.2 425.268 66.61 A 15.08 15.08 0 0 0 426.2 66.35 Q 428.889 65.503 431.976 63.912 A 49.095 49.095 0 0 0 432 63.9 L 434.8 71.5 Q 431.7 73.2 427.85 74.2 Q 424 75.2 419.1 75.2 A 26.803 26.803 0 0 1 412.061 74.31 A 22.074 22.074 0 0 1 406.15 71.75 Q 400.6 68.3 397.6 62.15 Q 394.6 56 394.6 48 Q 394.6 40.5 397.65 34.3 Q 400.7 28.1 406.4 24.45 A 23.067 23.067 0 0 1 416.068 21.029 A 29.608 29.608 0 0 1 419.8 20.8 Q 424.2 20.8 427.55 21.6 Q 430.9 22.4 434 23.9 Z M 88.6 26.2 L 88.6 22 L 96.8 22 L 96.8 61.4 A 12.15 12.15 0 0 0 96.902 63.036 Q 97.234 65.47 98.65 66.35 Q 100.5 67.5 102.7 67.5 L 100.8 74.5 A 17.722 17.722 0 0 1 96.535 74.028 Q 90.898 72.628 89.303 67.08 A 13.59 13.59 0 0 1 89.2 66.7 A 21.307 21.307 0 0 1 86.09 70.126 A 28.498 28.498 0 0 1 82.95 72.55 Q 79 75.2 72.9 75.2 Q 66.4 75.2 61.1 71.9 A 22.947 22.947 0 0 1 53.687 64.373 A 27.923 27.923 0 0 1 52.65 62.55 A 27.228 27.228 0 0 1 50.02 54.608 A 36.644 36.644 0 0 1 49.5 48.3 A 33.142 33.142 0 0 1 50.497 40.031 A 27.968 27.968 0 0 1 52.65 34.3 Q 55.8 28.1 61.35 24.45 A 22.297 22.297 0 0 1 72.545 20.844 A 27.388 27.388 0 0 1 74.1 20.8 A 22.584 22.584 0 0 1 78.894 21.29 A 18.703 18.703 0 0 1 82.25 22.35 A 26.002 26.002 0 0 1 86.537 24.644 A 22.103 22.103 0 0 1 88.6 26.2 Z M 139.2 57.7 L 139.2 0 L 148.2 0 L 148.2 56.8 A 20.644 20.644 0 0 0 148.388 59.688 Q 148.85 62.952 150.45 64.8 A 7.363 7.363 0 0 0 155.034 67.276 A 10.724 10.724 0 0 0 156.7 67.4 Q 158.6 67.4 160.45 66.95 A 22.192 22.192 0 0 0 161.913 66.544 Q 162.848 66.247 163.6 65.9 L 165.8 73.2 Q 164.401 73.822 162.488 74.323 A 34.978 34.978 0 0 1 161.35 74.6 A 23.816 23.816 0 0 1 158.195 75.085 A 30.514 30.514 0 0 1 155.5 75.2 A 20.862 20.862 0 0 1 150.61 74.646 A 17.544 17.544 0 0 1 147.2 73.45 A 12.683 12.683 0 0 1 141.875 68.685 A 15.856 15.856 0 0 1 141.35 67.8 Q 139.616 64.654 139.28 60.012 A 32.105 32.105 0 0 1 139.2 57.7 Z M 123.7 74 L 114.7 74 L 114.7 22 L 123.7 22 L 123.7 74 Z M 262.6 74 L 253.6 74 L 253.6 22 L 262.6 22 L 262.6 74 Z M 87.8 60.7 L 87.8 32.8 Q 85.1 30.9 81.85 29.75 Q 78.6 28.6 75 28.6 A 15.924 15.924 0 0 0 70.029 29.354 A 14.024 14.024 0 0 0 66.55 31.05 A 16.301 16.301 0 0 0 61.531 36.474 A 19.962 19.962 0 0 0 60.8 37.85 A 20.663 20.663 0 0 0 59.047 43.527 A 27.678 27.678 0 0 0 58.7 48 Q 58.7 53.6 60.8 57.95 A 17.602 17.602 0 0 0 63.906 62.496 A 15.697 15.697 0 0 0 66.6 64.75 Q 70.3 67.2 74.9 67.2 Q 78.7 67.2 82.1 65.35 Q 85.5 63.5 87.8 60.7 Z M 372.2 60.9 L 372.2 35.1 A 15.847 15.847 0 0 0 370.089 32.927 Q 368.968 31.964 367.569 31.066 A 28.139 28.139 0 0 0 366.9 30.65 Q 363.5 28.6 359.4 28.6 A 14.946 14.946 0 0 0 354.444 29.4 A 13.385 13.385 0 0 0 351 31.2 A 16.69 16.69 0 0 0 345.83 37.35 A 19.924 19.924 0 0 0 345.45 38.15 A 22.19 22.19 0 0 0 343.71 44.514 A 28.113 28.113 0 0 0 343.5 48 A 24.757 24.757 0 0 0 344.093 53.519 A 20.327 20.327 0 0 0 345.6 57.85 A 18.205 18.205 0 0 0 348.64 62.363 A 16.122 16.122 0 0 0 351.35 64.7 Q 355 67.2 359.5 67.2 Q 363.2 67.2 366.55 65.45 Q 369.9 63.7 372.2 60.9 Z M 114.837 11.288 A 5.973 5.973 0 0 0 119.2 13.1 A 8.175 8.175 0 0 0 120.696 12.969 A 5.647 5.647 0 0 0 123.8 11.35 Q 125.5 9.6 125.5 6.8 A 7.26 7.26 0 0 0 125.5 6.719 A 6.06 6.06 0 0 0 123.65 2.35 A 7.395 7.395 0 0 0 123.592 2.293 A 6.059 6.059 0 0 0 119.2 0.5 A 8.264 8.264 0 0 0 117.544 0.658 A 5.661 5.661 0 0 0 114.6 2.2 A 5.588 5.588 0 0 0 113.129 4.832 A 7.987 7.987 0 0 0 112.9 6.8 A 5.992 5.992 0 0 0 113.392 9.219 A 6.643 6.643 0 0 0 114.75 11.2 A 7.466 7.466 0 0 0 114.837 11.288 Z M 253.737 11.288 A 5.973 5.973 0 0 0 258.1 13.1 A 8.175 8.175 0 0 0 259.596 12.969 A 5.647 5.647 0 0 0 262.7 11.35 Q 264.4 9.6 264.4 6.8 A 7.26 7.26 0 0 0 264.4 6.719 A 6.06 6.06 0 0 0 262.55 2.35 A 7.395 7.395 0 0 0 262.492 2.293 A 6.059 6.059 0 0 0 258.1 0.5 A 8.264 8.264 0 0 0 256.444 0.658 A 5.661 5.661 0 0 0 253.5 2.2 A 5.588 5.588 0 0 0 252.029 4.832 A 7.987 7.987 0 0 0 251.8 6.8 A 5.992 5.992 0 0 0 252.292 9.219 A 6.643 6.643 0 0 0 253.65 11.2 A 7.466 7.466 0 0 0 253.737 11.288 Z" vector-effect="non-scaling-stroke"/></g></svg>