<svg width="484.9" height="96.701" viewBox="0 0 484.9 96.701" xmlns="http://www.w3.org/2000/svg"><g id="svgGroup" stroke-linecap="round" fill-rule="evenodd" font-size="9pt" stroke="#ffffff" stroke-width="0.25mm" fill="#ffffff" style="stroke:#ffffff;stroke-width:0.25mm;fill:#ffffff"><path d="M 219 67.601 L 223.8 59.601 Q 227.4 62.601 231.9 64.501 A 23.348 23.348 0 0 0 237.27 66.011 A 32.118 32.118 0 0 0 242.4 66.401 A 27.981 27.981 0 0 0 246.947 66.054 Q 249.37 65.655 251.331 64.794 A 13.701 13.701 0 0 0 253.8 63.401 Q 257.848 60.509 257.995 55.666 A 12.116 12.116 0 0 0 258 55.301 A 11.94 11.94 0 0 0 257.663 52.408 A 9.816 9.816 0 0 0 256.8 50.151 A 8.097 8.097 0 0 0 255.6 48.495 Q 254.33 47.114 252.184 45.772 A 25.81 25.81 0 0 0 252.15 45.751 Q 249.034 43.809 243.265 41.581 A 118.584 118.584 0 0 0 242 41.101 Q 234.8 38.301 230.5 35.451 A 21.931 21.931 0 0 1 227.411 33.003 Q 225.694 31.353 224.638 29.488 A 13.303 13.303 0 0 1 224.35 28.951 Q 222.5 25.301 222.5 20.301 Q 222.5 15.301 225.25 11.251 Q 228 7.201 233.35 4.751 A 25.558 25.558 0 0 1 239.25 2.916 Q 242.493 2.301 246.3 2.301 Q 252.5 2.301 257.45 3.551 Q 262.4 4.801 267.1 7.101 L 263.6 15.201 A 31.496 31.496 0 0 0 259.474 13.182 A 41.686 41.686 0 0 0 255.65 11.851 Q 251.1 10.501 246.1 10.501 A 27.187 27.187 0 0 0 242.07 10.781 Q 239.938 11.101 238.2 11.787 A 12.616 12.616 0 0 0 235.7 13.101 A 9.902 9.902 0 0 0 233.537 15.065 A 7.359 7.359 0 0 0 231.9 19.801 A 10.464 10.464 0 0 0 232.192 22.322 A 8.562 8.562 0 0 0 233 24.401 Q 234.056 26.32 237.091 28.147 A 23.503 23.503 0 0 0 237.35 28.301 A 33.003 33.003 0 0 0 239.566 29.473 Q 241.835 30.576 245.046 31.823 A 130.016 130.016 0 0 0 247.1 32.601 A 81.228 81.228 0 0 1 252.078 34.63 Q 256.464 36.601 259.45 38.701 A 26.044 26.044 0 0 1 262.49 41.178 Q 264.713 43.307 265.9 45.651 A 17.579 17.579 0 0 1 267.641 51.513 A 22.155 22.155 0 0 1 267.8 54.201 A 21.71 21.71 0 0 1 267.133 59.701 A 17.105 17.105 0 0 1 264.55 65.301 Q 261.3 69.901 255.55 72.301 A 30.521 30.521 0 0 1 248.14 74.305 A 40.027 40.027 0 0 1 242.4 74.701 Q 235.1 74.701 229.1 72.751 A 38.206 38.206 0 0 1 223.733 70.568 A 28.433 28.433 0 0 1 219 67.601 Z M 48.5 94.701 L 50.5 87.201 A 9.908 9.908 0 0 0 51.665 87.775 Q 52.488 88.119 53.5 88.401 A 13.514 13.514 0 0 0 55.779 88.818 A 17.358 17.358 0 0 0 57.5 88.901 Q 61.7 88.901 65 86.201 A 12.003 12.003 0 0 0 66.933 84.139 Q 68.681 81.828 70.341 77.976 A 58.58 58.58 0 0 0 71.3 75.601 L 73.6 69.601 L 68.8 69.601 L 48.5 23.901 L 56.5 20.301 L 75.9 63.601 L 91 20.701 L 99.3 23.901 L 80.2 76.101 A 71.728 71.728 0 0 1 78.147 81.187 Q 77.045 83.626 75.878 85.615 A 30.86 30.86 0 0 1 73.9 88.601 A 24.268 24.268 0 0 1 71.022 91.811 Q 69.108 93.579 67.005 94.619 A 14.737 14.737 0 0 1 66.4 94.901 Q 62.3 96.701 57.3 96.701 Q 54.3 96.701 52.05 96.101 Q 49.8 95.501 48.5 94.701 Z M 31 73.501 L 21.5 73.501 L 21.5 11.901 L 0 11.901 L 0 3.501 L 52.5 3.501 L 52.5 11.901 L 31 11.901 L 31 73.501 Z M 119.2 95.501 L 110.2 95.501 L 110.2 34.801 A 11.015 11.015 0 0 0 110.073 33.065 Q 109.742 30.999 108.55 29.951 A 5.718 5.718 0 0 0 105.76 28.628 A 7.991 7.991 0 0 0 104.3 28.501 L 106.2 21.501 Q 112.062 21.501 115.122 24.464 A 10.15 10.15 0 0 1 117.7 28.801 Q 118.655 27.368 120.752 25.478 A 38.58 38.58 0 0 1 120.95 25.301 A 18.902 18.902 0 0 1 123.651 23.317 A 25.569 25.569 0 0 1 126.55 21.801 A 16.955 16.955 0 0 1 131.109 20.512 A 21.886 21.886 0 0 1 134.2 20.301 Q 140.2 20.301 145.45 23.451 A 22.329 22.329 0 0 1 152.628 30.418 A 27.464 27.464 0 0 1 153.9 32.551 Q 157.1 38.501 157.1 47.001 Q 157.1 55.301 153.9 61.551 A 27.846 27.846 0 0 1 149.966 67.382 A 23.029 23.029 0 0 1 145.55 71.251 Q 140.4 74.701 134.4 74.701 Q 129.8 74.701 125.8 72.851 A 30.352 30.352 0 0 1 122.384 71.012 Q 120.591 69.885 119.2 68.601 L 119.2 95.501 Z M 403.8 95.501 L 394.8 95.501 L 394.8 34.801 A 11.015 11.015 0 0 0 394.673 33.065 Q 394.342 30.999 393.15 29.951 A 5.718 5.718 0 0 0 390.36 28.628 A 7.991 7.991 0 0 0 388.9 28.501 L 390.8 21.501 Q 396.662 21.501 399.722 24.464 A 10.15 10.15 0 0 1 402.3 28.801 Q 403.255 27.368 405.352 25.478 A 38.58 38.58 0 0 1 405.55 25.301 A 18.902 18.902 0 0 1 408.251 23.317 A 25.569 25.569 0 0 1 411.15 21.801 A 16.955 16.955 0 0 1 415.709 20.512 A 21.886 21.886 0 0 1 418.8 20.301 Q 424.8 20.301 430.05 23.451 A 22.329 22.329 0 0 1 437.228 30.418 A 27.464 27.464 0 0 1 438.5 32.551 Q 441.7 38.501 441.7 47.001 Q 441.7 55.301 438.5 61.551 A 27.846 27.846 0 0 1 434.566 67.382 A 23.029 23.029 0 0 1 430.15 71.251 Q 425 74.701 419 74.701 Q 414.4 74.701 410.4 72.851 A 30.352 30.352 0 0 1 406.984 71.012 Q 405.191 69.885 403.8 68.601 L 403.8 95.501 Z M 211.7 51.201 L 175.3 51.201 A 24.088 24.088 0 0 0 176.439 56.226 Q 177.775 60.038 180.4 62.601 Q 184.6 66.701 191.5 66.701 Q 196 66.701 199.6 65.751 Q 203.2 64.801 206.5 63.301 L 208.6 71.001 A 40.77 40.77 0 0 1 204.265 72.627 A 51.863 51.863 0 0 1 200.5 73.651 A 38.914 38.914 0 0 1 195.408 74.47 A 52.025 52.025 0 0 1 190.4 74.701 A 28.318 28.318 0 0 1 182.654 73.695 A 21.108 21.108 0 0 1 172.65 67.551 A 23.521 23.521 0 0 1 167.445 58.011 Q 166.1 53.346 166.1 47.501 A 35.359 35.359 0 0 1 166.933 39.679 A 28.84 28.84 0 0 1 169.05 33.551 A 24.642 24.642 0 0 1 174.066 26.469 A 22.887 22.887 0 0 1 177.3 23.851 A 21.048 21.048 0 0 1 187.559 20.379 A 26.205 26.205 0 0 1 189.6 20.301 Q 197.1 20.301 202.05 23.551 Q 207 26.801 209.5 32.301 A 28.185 28.185 0 0 1 211.926 42.164 A 33.434 33.434 0 0 1 212 44.401 A 75.204 75.204 0 0 1 211.709 51.097 A 69.426 69.426 0 0 1 211.7 51.201 Z M 456.2 55.601 L 456.2 31.201 L 447.2 31.201 L 447.2 23.401 L 456.4 23.401 L 458.3 7.001 L 465.2 7.001 L 465.2 23.401 L 479.6 23.401 L 479.6 31.201 L 465.2 31.201 L 465.2 56.301 A 21.559 21.559 0 0 0 465.368 59.097 Q 465.841 62.703 467.65 64.401 Q 470.1 66.701 473.5 66.701 Q 476 66.701 478.25 65.901 Q 480.5 65.101 482.4 64.001 L 484.9 71.201 A 18.546 18.546 0 0 1 483.282 72.057 Q 482.48 72.435 481.534 72.809 A 43.365 43.365 0 0 1 479.5 73.551 Q 476.1 74.701 472.4 74.701 Q 464.9 74.701 460.55 69.751 A 16.116 16.116 0 0 1 457.322 63.848 Q 456.559 61.418 456.315 58.481 A 34.777 34.777 0 0 1 456.2 55.601 Z M 316.7 23.401 L 314 31.001 A 30.422 30.422 0 0 0 311.096 29.725 A 23.42 23.42 0 0 0 308.65 28.951 A 20.543 20.543 0 0 0 305.607 28.425 A 26.355 26.355 0 0 0 303 28.301 A 15.889 15.889 0 0 0 295.747 29.943 A 16.132 16.132 0 0 0 291.25 33.351 Q 286.5 38.401 286.5 47.301 A 25.192 25.192 0 0 0 287.205 53.361 A 21.45 21.45 0 0 0 288.5 57.101 A 18.564 18.564 0 0 0 291.41 61.678 A 16.275 16.275 0 0 0 294.05 64.101 Q 297.6 66.701 302.4 66.701 Q 305.565 66.701 307.968 66.111 A 15.08 15.08 0 0 0 308.9 65.851 Q 311.589 65.004 314.676 63.413 A 49.095 49.095 0 0 0 314.7 63.401 L 317.5 71.001 Q 314.4 72.701 310.55 73.701 Q 306.7 74.701 301.8 74.701 A 26.803 26.803 0 0 1 294.761 73.811 A 22.074 22.074 0 0 1 288.85 71.251 Q 283.3 67.801 280.3 61.651 Q 277.3 55.501 277.3 47.501 Q 277.3 40.001 280.35 33.801 Q 283.4 27.601 289.1 23.951 A 23.067 23.067 0 0 1 298.768 20.53 A 29.608 29.608 0 0 1 302.5 20.301 Q 306.9 20.301 310.25 21.101 Q 313.6 21.901 316.7 23.401 Z M 337 73.501 L 328 73.501 L 328 21.501 L 336.7 21.501 L 336.7 32.801 Q 338 29.501 340.2 26.651 Q 342.4 23.801 345.7 22.051 A 14.817 14.817 0 0 1 350.38 20.527 A 19.459 19.459 0 0 1 353.4 20.301 Q 354.9 20.301 356.4 20.451 A 18.972 18.972 0 0 1 357.455 20.584 Q 357.955 20.663 358.382 20.763 A 8.817 8.817 0 0 1 358.9 20.901 L 356.2 30.201 A 9.763 9.763 0 0 0 354.055 29.588 Q 352.959 29.401 351.7 29.401 A 12.958 12.958 0 0 0 345.07 31.246 A 15.609 15.609 0 0 0 344.65 31.501 Q 341.322 33.587 339.178 37.943 A 22.927 22.927 0 0 0 339.15 38.001 Q 337.387 41.608 337.07 46.828 A 39.09 39.09 0 0 0 337 49.201 L 337 73.501 Z M 376.9 73.501 L 367.9 73.501 L 367.9 21.501 L 376.9 21.501 L 376.9 73.501 Z M 119.2 34.901 L 119.2 60.501 Q 121.8 63.201 125.2 64.951 Q 128.6 66.701 132.6 66.701 Q 139.294 66.701 143.517 61.517 A 17.38 17.38 0 0 0 143.65 61.351 A 18.792 18.792 0 0 0 147.144 54.045 Q 147.805 51.355 147.888 48.209 A 34.555 34.555 0 0 0 147.9 47.301 Q 147.9 41.301 145.75 37.001 Q 143.6 32.701 140.05 30.401 Q 136.5 28.101 132.2 28.101 A 14.741 14.741 0 0 0 126.573 29.164 A 14.054 14.054 0 0 0 124.45 30.251 Q 121 32.401 119.2 34.901 Z M 403.8 34.901 L 403.8 60.501 Q 406.4 63.201 409.8 64.951 Q 413.2 66.701 417.2 66.701 Q 423.894 66.701 428.117 61.517 A 17.38 17.38 0 0 0 428.25 61.351 A 18.792 18.792 0 0 0 431.744 54.045 Q 432.405 51.355 432.488 48.209 A 34.555 34.555 0 0 0 432.5 47.301 Q 432.5 41.301 430.35 37.001 Q 428.2 32.701 424.65 30.401 Q 421.1 28.101 416.8 28.101 A 14.741 14.741 0 0 0 411.173 29.164 A 14.054 14.054 0 0 0 409.05 30.251 Q 405.6 32.401 403.8 34.901 Z M 175.2 43.901 L 203.7 43.901 A 24.355 24.355 0 0 0 203.296 39.315 Q 202.8 36.731 201.696 34.708 A 12.422 12.422 0 0 0 199.9 32.201 A 12.488 12.488 0 0 0 192.939 28.425 A 18.395 18.395 0 0 0 189.4 28.101 A 13.58 13.58 0 0 0 184.288 29.036 A 12.524 12.524 0 0 0 179.8 32.151 Q 176 36.201 175.2 43.901 Z M 368.037 10.789 A 5.973 5.973 0 0 0 372.4 12.601 A 8.175 8.175 0 0 0 373.896 12.47 A 5.647 5.647 0 0 0 377 10.851 Q 378.7 9.101 378.7 6.301 A 7.26 7.26 0 0 0 378.7 6.22 A 6.06 6.06 0 0 0 376.85 1.851 A 7.395 7.395 0 0 0 376.792 1.793 A 6.059 6.059 0 0 0 372.4 0.001 A 8.264 8.264 0 0 0 370.744 0.158 A 5.661 5.661 0 0 0 367.8 1.701 A 5.588 5.588 0 0 0 366.329 4.333 A 7.987 7.987 0 0 0 366.1 6.301 A 5.992 5.992 0 0 0 366.592 8.719 A 6.643 6.643 0 0 0 367.95 10.701 A 7.466 7.466 0 0 0 368.037 10.789 Z" vector-effect="non-scaling-stroke"/></g></svg>